<svg width="179" height="145" viewBox="0 0 179 145" fill="none" xmlns="http://www.w3.org/2000/svg">
<g clip-path="url(#clip0_716_904)">
<path opacity="0.1" d="M178.174 84.0704C177.537 78.3259 175.684 72.8914 173.267 68.0358C167.813 57.0642 159.547 48.8783 150.612 43.0147C150.526 42.957 150.433 42.903 150.352 42.8471C151.339 41.6723 152.044 40.2856 152.414 38.7938C155.162 27.476 136.625 13.2102 111.023 6.93371C90.476 1.90317 71.6195 3.54035 63.5494 10.2333C44.7251 9.04328 25.0863 20.6838 12.0357 38.6135C7.37088 45.0306 3.42374 52.6106 1.69238 61.1806C-0.413953 71.559 0.845542 82.7289 3.80051 92.7449C6.07729 100.458 9.40365 107.685 13.5858 113.875C13.8837 114.315 14.1857 114.75 14.4919 115.18C15.0194 115.922 15.5576 116.643 16.1066 117.344C19.5514 121.753 23.4734 125.496 27.7865 128.328C30.237 129.943 32.868 131.262 35.6252 132.259C42.9812 134.906 50.8755 135.016 58.1454 132.259C59.3638 131.798 60.5526 131.261 61.705 130.652C62.3437 130.317 62.9753 129.956 63.5996 129.571C64.8035 128.828 65.9858 127.998 67.1592 127.136C68.7865 125.939 70.3887 124.677 72.0232 123.498L72.1631 123.395C74.0829 122.01 76.0259 120.743 78.0515 119.83C79.4009 119.206 80.8292 118.771 82.2965 118.538C84.4681 118.227 86.681 118.4 88.7788 119.044C89.1771 119.16 89.5754 119.291 89.9701 119.436C91.2534 119.912 92.4966 120.492 93.6876 121.168C98.8619 124.053 103.814 128.653 108.895 132.259C109.612 132.775 110.35 133.271 111.082 133.737C117.564 137.872 124.694 139.888 131.749 141.842C139.747 144.06 148.212 146.213 155.95 142.76C160.435 140.76 164.32 136.969 167.433 132.259C168.796 130.183 169.993 128.001 171.01 125.734C171.516 124.612 171.989 123.47 172.429 122.308C174.988 115.546 176.475 108.118 177.501 100.671C178.262 95.1899 178.779 89.577 178.174 84.0704Z" fill="#FF4400"/>
<g opacity="0.1">
<path d="M56.5139 96.5858C56.5695 96.7463 56.6269 96.9013 56.6933 97.0528C57.8762 96.1212 59.0221 95.1596 60.1309 94.1679C60.7938 93.871 61.3419 93.3644 61.6918 92.7254C62.0112 92.4225 62.3287 92.1124 62.6427 91.8041C62.5069 91.651 62.3612 91.5071 62.2067 91.3731C61.1446 90.4373 59.8313 90.0443 58.631 90.4428C57.4307 90.8412 56.6108 91.9429 56.3111 93.3277C56.0884 94.4124 56.1584 95.5374 56.5139 96.5858Z" fill="#3F3D56"/>
<path d="M54.5439 90.5961C54.8797 91.648 55.4885 92.5909 56.3076 93.3277C57.3697 94.2599 58.6813 94.6548 59.8833 94.2545C59.9659 94.2256 60.0448 94.195 60.1273 94.1625C60.7902 93.8656 61.3384 93.3591 61.6883 92.7201C61.9289 92.299 62.1027 91.8427 62.2032 91.3678C62.4107 90.2831 62.3383 89.1631 61.9928 88.1146C61.6473 87.066 61.0403 86.1239 60.2296 85.378C59.1657 84.4422 57.8542 84.0492 56.6539 84.4476C55.4536 84.8461 54.6337 85.9478 54.334 87.3325C54.1126 88.4197 54.1851 89.5466 54.5439 90.5961Z" fill="#3F3D56"/>
<path d="M57.9062 88.2762C59.9637 87.5927 60.91 84.8442 60.0197 82.1373C59.1294 79.4303 56.7397 77.79 54.6821 78.4734C52.6245 79.1569 51.6783 81.9054 52.5686 84.6123C53.4589 87.3193 55.8486 88.9596 57.9062 88.2762Z" fill="#3F3D56"/>
<path d="M55.9364 82.2859C57.994 81.6025 58.9403 78.854 58.05 76.1471C57.1597 73.4401 54.77 71.7997 52.7124 72.4832C50.6548 73.1666 49.7085 75.9151 50.5988 78.6221C51.4891 81.329 53.8789 82.9694 55.9364 82.2859Z" fill="#3F3D56"/>
<path d="M53.9662 76.2967C56.0238 75.6132 56.9701 72.8647 56.0798 70.1578C55.1895 67.4508 52.7998 65.8105 50.7422 66.4939C48.6846 67.1774 47.7383 69.9259 48.6286 72.6328C49.5189 75.3398 51.9086 76.9801 53.9662 76.2967Z" fill="#3F3D56"/>
<path d="M52.8199 25.7667C53.1159 24.9463 53.3557 24.1065 53.5376 23.2532L43.2176 24.8904L53.8301 21.452C54.1142 18.894 53.8763 16.3047 53.131 13.8423C52.3857 11.3798 51.1487 9.09598 49.4954 7.13027L37.7293 19.254L47.6438 5.22624C45.7157 3.50395 43.4553 2.19903 41.0036 1.39274C38.5518 0.586439 35.9611 0.296031 33.3928 0.539594C30.8246 0.783156 28.3337 1.55548 26.0753 2.80846C23.8169 4.06144 21.8394 5.76826 20.2658 7.82262C18.6923 9.87699 17.5565 12.2349 16.9291 14.7496C16.3017 17.2642 16.1961 19.8818 16.619 22.4392C17.0419 24.9966 17.9841 27.4392 19.3871 29.6148C20.79 31.7904 22.6236 33.6524 24.7737 35.0849C24.3133 36.362 23.9915 37.6853 23.8139 39.0318L38.7053 41.4443L23.6542 41.3758C23.6325 44.5177 24.3907 47.6155 25.8602 50.3888C27.3298 53.1621 29.4643 55.5234 32.0706 57.2589C30.8708 60.5916 30.6284 64.1963 31.3711 67.6609C32.1138 71.1255 33.8115 74.3101 36.2703 76.8507C38.729 79.3914 41.8495 81.1854 45.275 82.0278C48.7005 82.8702 52.2927 82.7269 55.641 81.6143C58.9893 80.5017 61.9585 78.4647 64.2091 75.7362C66.4597 73.0077 67.9009 69.6979 68.368 66.185C68.8351 62.6722 68.3092 59.0982 66.8503 55.8715C65.3915 52.6449 63.0587 49.896 60.1186 47.9389C61.5542 43.9559 61.6155 39.6034 60.2928 35.5811C58.97 31.5588 56.34 28.1002 52.8253 25.7613L52.8199 25.7667Z" fill="#FF4400"/>
<path opacity="0.1" d="M24.5944 47.4486C25.9118 51.4726 28.5423 54.9319 32.0599 57.2662C30.8626 60.5989 30.6224 64.2028 31.3667 67.6661C32.111 71.1295 33.8097 74.3126 36.2688 76.8516C38.728 79.3907 41.8482 81.1833 45.2731 82.0246C48.698 82.8659 52.2893 82.722 55.6366 81.6093C58.9839 80.4966 61.9523 78.46 64.2024 75.7322C66.4525 73.0044 67.8937 69.6955 68.3612 66.1836C68.8287 62.6716 68.3036 59.0984 66.8461 55.8722C65.3885 52.6459 63.0573 49.8968 60.1187 47.939C61.502 44.0931 23.9378 45.4273 24.5944 47.4486Z" fill="black"/>
</g>
<path d="M70.2774 45.5628C69.8306 44.6469 69.6638 43.6137 69.5023 42.6004C68.555 36.6178 67.6687 30.1593 70.2415 24.7375C70.647 23.8846 71.1386 23.0552 71.8562 22.4728C72.6241 21.8508 73.5768 21.5551 74.4667 21.1512C77.0503 19.9828 79.1315 17.8859 81.4029 16.1459C83.6743 14.4059 86.4158 12.9545 89.1985 13.398C90.6338 13.627 91.9615 14.3482 93.3538 14.8008C97.2865 16.081 101.826 15.2462 105.358 17.4657C106.634 18.2681 107.675 19.413 108.697 20.5454L113.26 25.5939C114.496 26.9606 115.756 28.3616 116.504 30.0745C117.252 31.7874 117.41 33.8988 116.457 35.4963C115.978 36.3023 115.221 37.0001 115.138 37.9467C115.049 38.9744 115.791 39.8579 116.062 40.8496C116.78 43.4695 114.148 45.7179 111.747 46.7528C104.494 49.8721 96.5133 49.5133 88.8343 49.3853C83.1163 49.2861 73.575 52.3027 70.2774 45.5628Z" fill="#3F3D56"/>
<path d="M83.1771 58.5284C82.6729 59.7382 81.5893 60.5929 80.5181 61.3447C79.447 62.0966 78.3042 62.8124 77.0142 62.8737C79.2874 65.8109 82.3966 67.971 85.4359 70.086C86.8515 71.0686 88.2868 72.0495 89.9016 72.6048C91.3835 73.1133 92.9606 73.2395 94.5107 73.4523C96.4843 73.7245 98.4489 74.1447 100.431 74.0617C103.964 73.9139 107.343 72.1234 109.686 69.4621C112.029 66.8008 113.371 63.3317 113.733 59.7923C112.477 59.7725 111.318 59.0711 110.305 58.3066C109.065 57.3744 107.902 56.2962 107.102 54.9637C106.236 53.5213 105.846 51.848 105.451 50.209C101.269 50.0828 97.0871 49.9584 92.9032 50.0395C91.3799 50.0684 89.8531 50.1279 88.3676 50.5083C86.952 50.869 83.9952 51.7993 83.1322 53.0813C82.6352 53.8206 83.1322 54.5815 83.3116 55.3784C83.5413 56.426 83.5987 57.5204 83.1771 58.5284Z" fill="#BE6F72"/>
<path opacity="0.1" d="M83.1771 58.5284C82.6729 59.7382 81.5893 60.5929 80.5181 61.3447C79.447 62.0966 78.3042 62.8124 77.0142 62.8737C79.2874 65.8109 82.3966 67.971 85.4359 70.086C86.8515 71.0686 88.2868 72.0495 89.9016 72.6048C91.3835 73.1133 92.9606 73.2395 94.5107 73.4523C96.4843 73.7245 98.4489 74.1447 100.431 74.0617C103.964 73.9139 107.343 72.1234 109.686 69.4621C112.029 66.8008 113.371 63.3317 113.733 59.7923C112.477 59.7725 111.318 59.0711 110.305 58.3066C109.065 57.3744 107.902 56.2962 107.102 54.9637C106.236 53.5213 105.846 51.848 105.451 50.209C101.269 50.0828 97.0871 49.9584 92.9032 50.0395C91.3799 50.0684 89.8531 50.1279 88.3676 50.5083C86.952 50.869 83.9952 51.7993 83.1322 53.0813C82.6352 53.8206 83.1322 54.5815 83.3116 55.3784C83.5413 56.426 83.5987 57.5204 83.1771 58.5284Z" fill="black"/>
<path d="M87.9084 63.51C89.1051 65.0048 90.3376 66.5301 91.9775 67.511C92.4781 67.8085 93.0378 68.0519 93.6191 68.0321C94.4803 67.996 95.1926 67.3794 95.8242 66.788C98.9774 63.8384 101.972 60.7219 104.795 57.4517C105.679 56.4258 106.589 55.3566 107.8 54.7598C108.894 64.6835 109.18 74.6804 108.654 84.6509C108.66 84.8391 108.617 85.0256 108.529 85.1918C108.34 85.4785 107.945 85.52 107.603 85.5326C97.4748 85.9148 86.9413 86.2214 77.6655 82.1068C78.3096 80.1865 78.2038 78.1094 78.2666 76.0828C78.3688 72.7597 78.943 69.4691 79.736 66.2471C80.1253 64.6658 80.5685 63.0989 81.0385 61.5411C81.4297 60.2357 81.7275 57.935 82.6012 56.9487C84.6107 58.7517 86.2201 61.4004 87.9084 63.51Z" fill="#E3E8F4"/>
<path d="M92.5066 68.3418H93.7625L96.992 73.751L93.5831 82.2254L89.4565 73.9313L92.5066 68.3418Z" fill="#3F3D56"/>
<path d="M92.3936 76.8892C91.2258 75.1765 90.421 73.2408 90.0289 71.2023C89.9033 70.5496 89.819 69.8843 89.5893 69.2604C89.2485 68.3354 88.6061 67.5601 88.0266 66.7614C85.8777 63.7989 84.4938 60.3469 83.9988 56.7147C83.7763 55.0667 83.6274 53.1789 82.3033 52.1818C81.4708 51.5562 80.362 51.4606 79.3214 51.4786C75.2968 51.5797 71.4422 53.1301 68.4596 55.8474C67.9637 56.3417 67.4395 56.8065 66.8897 57.2394C66.3263 57.6266 65.7251 57.9552 65.0956 58.2203C63.5059 58.9415 61.8446 59.5401 60.1132 59.7222C59.6682 59.7409 59.2272 59.8141 58.7999 59.9404C58.2832 60.1207 57.858 60.5011 57.422 60.8419C56.0293 61.9199 54.4293 62.6959 52.7231 63.121C50.3151 68.7401 48.4526 74.5796 47.1612 80.5584C46.8365 82.0459 46.5458 83.5443 46.1027 85.0011C45.4909 87.0206 44.5902 88.9462 43.9892 90.9693C41.5993 99.0199 44.1094 107.79 42.5 116.032L128.81 116.151C127.453 114.036 127.941 111.349 127.825 108.836C127.715 106.521 127.13 104.258 126.725 101.975C126.047 98.158 125.872 94.267 125.803 90.3905C125.774 88.7533 125.772 87.062 126.402 85.5529C127.584 82.7203 130.652 81.2255 133.557 80.2645C134.946 79.8065 136.406 79.3882 137.504 78.4091C138.629 77.3976 139.214 75.9119 139.573 74.4424C137.615 70.5658 135.071 66.8695 131.858 63.9612C130.65 62.8794 129.36 61.8643 128.341 60.5985C127.72 59.825 127.206 58.9631 126.52 58.2545C124.805 56.4641 122.214 55.7897 119.745 55.6906C118.983 55.6599 118.21 55.6744 117.47 55.4832C115.35 54.9423 113.999 52.8598 112.088 51.7815C110.759 51.0359 109.206 50.7965 107.716 51.1072C106.639 51.3326 105.538 51.9745 105.295 53.0419C105.161 53.6423 105.326 54.2626 105.389 54.8738C105.582 56.7544 104.806 58.5971 103.865 60.2343C100.487 66.078 94.9628 70.6379 92.3936 76.8892Z" fill="#FF4400"/>
<path d="M111.252 40.8464C111.251 44.8879 109.913 48.8142 107.447 52.0071C104.982 55.2 101.53 57.478 97.6345 58.4824C93.7392 59.4867 89.6221 59.1603 85.9316 57.5546C82.2412 55.9489 79.187 53.1551 77.2503 49.6133C75.3135 46.0714 74.6041 41.9827 75.2338 37.9911C75.8636 33.9995 77.7966 30.3318 80.7286 27.5657C83.6605 24.7996 87.4248 23.0922 91.4285 22.7124C95.4322 22.3327 99.4478 23.3021 102.843 25.4681C105.42 27.1122 107.542 29.3838 109.012 32.0723C110.482 34.7607 111.253 37.7788 111.252 40.8464Z" fill="#BE6F72"/>
<path d="M172.433 122.305V113.87H13.5894C13.8872 114.31 14.1892 114.745 14.4954 115.176C14.7268 115.726 15.0435 116.237 15.4337 116.688C15.6416 116.927 15.8697 117.147 16.1155 117.346C19.5603 121.755 23.4823 125.498 27.7955 128.331C30.2459 129.945 32.8769 131.265 35.6341 132.261H167.44L172.433 122.305Z" fill="#3F3D56"/>
<path d="M96.5238 104.224C94.0891 104.029 91.5576 103.419 89.2647 104.263C88.4829 104.577 87.7414 104.984 87.0561 105.475C84.5795 107.146 82.2984 109.092 80.2562 111.277C79.6659 111.906 79.0882 112.57 78.7258 113.356C78.2145 114.465 78.1696 115.729 77.8287 116.903C77.6332 117.575 77.3353 118.257 77.4538 118.947C77.5722 119.638 78.3652 120.256 78.9591 119.889C78.9294 120.081 78.9423 120.278 78.997 120.465C79.0517 120.652 79.1469 120.824 79.2756 120.97C79.4043 121.116 79.5634 121.231 79.7416 121.308C79.9198 121.385 80.1127 121.421 80.3065 121.414C81.2144 121.383 82.0911 121.072 82.8183 120.525C82.8414 120.744 82.9476 120.945 83.1147 121.087C83.2818 121.229 83.4969 121.301 83.7154 121.288C85.2709 121.185 86.7529 120.386 88.0841 119.514C89.6468 118.497 91.1988 117.339 93.0288 116.989C91.903 117.505 90.9113 118.276 90.1312 119.241C89.8316 119.611 89.5517 120.044 89.8819 120.615C90.0792 120.936 90.3829 121.177 90.7395 121.295C92.7884 122.016 95.0149 120.823 96.3821 119.167C96.9329 118.498 97.4191 117.725 98.1762 117.319C99.3945 116.661 100.896 117.123 102.267 116.932C103.788 116.722 105.068 115.725 106.465 115.082C108.326 114.227 110.4 114 112.386 113.491C112.624 113.456 112.844 113.342 113.01 113.167C113.134 112.959 113.188 112.716 113.163 112.474C113.154 110.005 112.969 107.539 112.608 105.096C112.578 104.703 112.459 104.321 112.259 103.982C111.867 103.423 111.125 103.261 110.455 103.149C109.379 102.969 108.171 102.565 107.088 102.568C106.047 102.568 105.044 103.16 104.052 103.45C101.61 104.163 99.0591 104.425 96.5238 104.224Z" fill="#BE6F72"/>
<path d="M107.874 100.972C105.184 101.256 102.654 102.393 100.65 104.218C102.888 103.65 105.295 103.089 107.452 103.911C108.502 104.312 109.411 105.017 110.062 105.937C110.713 106.857 111.078 107.951 111.11 109.08C111.142 110.208 110.839 111.321 110.241 112.277C109.643 113.233 108.776 113.988 107.75 114.448C108.186 114.941 108.826 115.182 109.463 115.368C114.065 116.717 118.992 115.909 123.698 114.989C124.559 114.822 125.492 114.6 126.018 113.888C126.486 113.244 126.472 112.377 126.431 111.578C126.31 109.272 126.111 106.89 125.071 104.836C123.66 102.049 121.211 101.01 118.262 101.333C114.792 101.704 111.347 100.619 107.874 100.972Z" fill="#E3E8F4"/>
<path d="M137.154 71.4288C138.642 72.8514 139.715 74.6472 140.7 76.4575C144.037 82.5867 146.594 89.1133 148.31 95.8837C148.479 96.549 148.646 97.2323 149.041 97.7931C149.615 98.6063 150.589 99.0552 151.215 99.8233C151.967 100.757 152.112 102.074 151.865 103.249C151.617 104.425 151.027 105.498 150.429 106.538C148.795 109.383 146.866 112.32 143.865 113.62C142.609 114.161 141.236 114.385 139.878 114.563C134.777 115.238 129.622 115.405 124.488 115.063C125.385 114.017 125.471 112.474 125.153 111.13C124.836 109.787 124.174 108.556 123.718 107.256C123.359 106.24 123.106 105.159 122.476 104.286C122.012 103.687 121.44 103.181 120.79 102.795C119.312 101.852 117.651 101.24 115.917 100.999C117.203 99.9892 118.87 99.6539 120.438 99.1959C122.006 98.7379 123.646 98.0347 124.468 96.6175C124.961 95.7683 125.098 94.7603 125.164 93.7795C125.364 90.828 125.021 87.8647 124.152 85.0382C123.574 83.1577 122.756 81.1923 123.255 79.2919C123.51 78.3327 124.082 77.4888 124.644 76.6811C125.738 75.0944 126.872 73.4698 128.469 72.3988C129.847 71.4738 131.485 71.0393 133.125 70.9239C134.354 70.8428 136.221 70.5434 137.154 71.4288Z" fill="#FF4400"/>
<path d="M72.5918 126.693C72.5775 128.576 67.4839 130.66 61.5901 130.66C55.6963 130.66 50.7767 128.581 50.6978 126.693C50.4233 120.146 55.6945 123.832 61.5901 123.832C67.4857 123.832 72.6456 119.157 72.5918 126.693Z" fill="#3F3D56"/>
<path opacity="0.2" d="M72.5918 126.693C72.5775 128.576 67.4839 130.66 61.5901 130.66C55.6963 130.66 50.7767 128.581 50.6978 126.693C50.4233 120.146 55.6945 123.832 61.5901 123.832C67.4857 123.832 72.6456 119.157 72.5918 126.693Z" fill="black"/>
<path d="M72.2633 123.831C72.2633 125.716 67.4837 127.798 61.5899 127.798C55.6961 127.798 50.9165 125.721 50.9165 123.831C50.9165 121.942 55.6943 120.972 61.5899 120.972C67.4855 120.972 72.2633 121.949 72.2633 123.831Z" fill="#3F3D56"/>
<path opacity="0.1" d="M72.2633 123.831C72.2633 125.716 67.4837 127.798 61.5899 127.798C55.6961 127.798 50.9165 125.721 50.9165 123.831C50.9165 121.942 55.6943 120.972 61.5899 120.972C67.4855 120.972 72.2633 121.949 72.2633 123.831Z" fill="white"/>
<path d="M70.1822 123.089C70.1714 124.559 66.1992 126.178 61.6008 126.178C57.0024 126.178 53.1683 124.555 53.1037 123.089C52.8902 117.983 57.0024 120.857 61.6008 120.857C66.1992 120.857 70.2253 117.211 70.1822 123.089Z" fill="#3F3D56"/>
<path opacity="0.2" d="M70.1822 123.089C70.1714 124.559 66.1992 126.178 61.6008 126.178C57.0024 126.178 53.1683 124.555 53.1037 123.089C52.8902 117.983 57.0024 120.857 61.6008 120.857C66.1992 120.857 70.2253 117.211 70.1822 123.089Z" fill="black"/>
<path d="M69.9255 120.495C69.9255 122.137 66.199 123.948 61.6006 123.948C57.0022 123.948 53.2739 122.145 53.2739 120.495C53.2739 118.845 57.0022 118.003 61.6006 118.003C66.199 118.003 69.9255 118.85 69.9255 120.495Z" fill="#3F3D56"/>
<path opacity="0.1" d="M69.9255 120.495C69.9255 122.137 66.199 123.948 61.6006 123.948C57.0022 123.948 53.2739 122.145 53.2739 120.495C53.2739 118.845 57.0022 118.003 61.6006 118.003C66.199 118.003 69.9255 118.85 69.9255 120.495Z" fill="white"/>
<path d="M41.6479 131.385C41.6479 131.385 43.2232 129.64 43.4941 127.678C43.765 125.716 35.7972 122.703 35.7972 122.703C35.7972 122.703 33.0342 124.326 32.9409 125.846C32.9409 125.846 38.2301 131.558 41.6479 131.385Z" fill="#3F3D56"/>
<path opacity="0.2" d="M41.6479 131.385C41.6479 131.385 43.2232 129.64 43.4941 127.678C43.765 125.716 35.7972 122.703 35.7972 122.703C35.7972 122.703 33.0342 124.326 32.9409 125.846C32.9409 125.846 38.2301 131.558 41.6479 131.385Z" fill="black"/>
<path d="M41.5758 131.464C42.0684 130.64 40.4855 128.775 38.0403 127.301C35.5951 125.826 33.2135 125.299 32.721 126.124C32.2284 126.949 33.8113 128.813 36.2565 130.287C38.7017 131.762 41.0833 132.289 41.5758 131.464Z" fill="#3F3D56"/>
<path opacity="0.1" d="M41.5758 131.464C42.0684 130.64 40.4855 128.775 38.0403 127.301C35.5951 125.826 33.2135 125.299 32.721 126.124C32.2284 126.949 33.8113 128.813 36.2565 130.287C38.7017 131.762 41.0833 132.289 41.5758 131.464Z" fill="white"/>
<path d="M43.6055 127.077L48.1375 119.484L43.5283 115.55L39.9346 114.874L38.8133 116.906L35.6592 122.788L43.6055 127.077Z" fill="#3F3D56"/>
<path opacity="0.1" d="M43.6055 127.077L48.1375 119.484L43.5283 115.55L39.9346 114.874L38.8133 116.906L35.6592 122.788L43.6055 127.077Z" fill="white"/>
<path d="M48.1983 120.233C48.1983 120.233 51.2592 116.964 50.4733 115.197C49.6875 113.43 45.5376 109.889 42.8948 110.428C40.252 110.967 39.8286 114.884 39.8286 114.884L48.1983 120.233Z" fill="#3F3D56"/>
<path opacity="0.2" d="M48.1983 120.233C48.1983 120.233 51.2592 116.964 50.4733 115.197C49.6875 113.43 45.5376 109.889 42.8948 110.428C40.252 110.967 39.8286 114.884 39.8286 114.884L48.1983 120.233Z" fill="black"/>
<path d="M13.3829 105.868L36.8271 120.199C36.8271 120.199 39.0555 119.908 38.8132 116.91L15.5933 102.424C15.1207 102.129 14.5607 102.008 14.0091 102.082C13.374 102.168 12.6222 102.401 12.3782 103.008C12.3158 103.163 12.2725 103.325 12.249 103.49C12.1835 103.954 12.2562 104.428 12.4579 104.851C12.6597 105.274 12.9815 105.628 13.3829 105.868Z" fill="#3F3D56"/>
<path opacity="0.2" d="M13.3829 105.868L36.8271 120.199C36.8271 120.199 39.0555 119.908 38.8132 116.91L15.5933 102.424C15.1207 102.129 14.5607 102.008 14.0091 102.082C13.374 102.168 12.6222 102.401 12.3782 103.008C12.3158 103.163 12.2725 103.325 12.249 103.49C12.1835 103.954 12.2562 104.428 12.4579 104.851C12.6597 105.274 12.9815 105.628 13.3829 105.868Z" fill="black"/>
<path d="M43.6019 128.147C43.7244 128.14 43.8414 128.094 43.9359 128.015C44.0305 127.937 44.0977 127.83 44.1276 127.71C44.2425 127.305 44.0325 126.915 43.8119 126.591C43.4178 126.012 42.9259 125.506 42.3586 125.098C41.4041 124.403 40.4783 123.621 39.3982 123.114C38.7729 122.835 38.1181 122.627 37.4462 122.496C36.9426 122.379 36.4272 122.323 35.9104 122.326C35.8187 122.329 35.7299 122.359 35.6559 122.414C35.5819 122.468 35.526 122.544 35.4959 122.631C35.4657 122.718 35.4626 122.812 35.487 122.901C35.5113 122.99 35.562 123.069 35.6323 123.129C35.8712 123.288 36.1378 123.4 36.4182 123.46C37.8158 123.873 39.1094 124.589 40.3204 125.402C40.9727 125.824 41.5837 126.307 42.1451 126.845C42.5183 127.216 42.9955 128.161 43.6019 128.147Z" fill="#3F3D56"/>
<path opacity="0.2" d="M43.6019 128.147C43.7244 128.14 43.8414 128.094 43.9359 128.015C44.0305 127.937 44.0977 127.83 44.1276 127.71C44.2425 127.305 44.0325 126.915 43.8119 126.591C43.4178 126.012 42.9259 125.506 42.3586 125.098C41.4041 124.403 40.4783 123.621 39.3982 123.114C38.7729 122.835 38.1181 122.627 37.4462 122.496C36.9426 122.379 36.4272 122.323 35.9104 122.326C35.8187 122.329 35.7299 122.359 35.6559 122.414C35.5819 122.468 35.526 122.544 35.4959 122.631C35.4657 122.718 35.4626 122.812 35.487 122.901C35.5113 122.99 35.562 123.069 35.6323 123.129C35.8712 123.288 36.1378 123.4 36.4182 123.46C37.8158 123.873 39.1094 124.589 40.3204 125.402C40.9727 125.824 41.5837 126.307 42.1451 126.845C42.5183 127.216 42.9955 128.161 43.6019 128.147Z" fill="black"/>
<path d="M47.3442 120.814C47.3442 120.814 49.6443 120.87 47.7407 118.546C45.8371 116.222 42.4318 113.916 40.0079 114.437C40.0079 114.437 39.0032 115.273 39.8716 115.418C40.6951 115.555 44.5364 116.319 46.3018 118.47C46.4951 118.704 46.7108 118.918 46.9459 119.108C47.3604 119.447 47.9183 120.089 47.3442 120.814Z" fill="#3F3D56"/>
<path opacity="0.2" d="M47.3442 120.814C47.3442 120.814 49.6443 120.87 47.7407 118.546C45.8371 116.222 42.4318 113.916 40.0079 114.437C40.0079 114.437 39.0032 115.273 39.8716 115.418C40.6951 115.555 44.5364 116.319 46.3018 118.47C46.4951 118.704 46.7108 118.918 46.9459 119.108C47.3604 119.447 47.9183 120.089 47.3442 120.814Z" fill="black"/>
<path d="M51.0939 115.692C51.5865 114.867 50.0035 113.003 47.5583 111.528C45.1131 110.053 42.7316 109.526 42.239 110.351C41.7465 111.176 43.3294 113.04 45.7746 114.515C48.2198 115.99 50.6013 116.517 51.0939 115.692Z" fill="#3F3D56"/>
<path opacity="0.1" d="M51.0939 115.692C51.5865 114.867 50.0035 113.003 47.5583 111.528C45.1131 110.053 42.7316 109.526 42.239 110.351C41.7465 111.176 43.3294 113.04 45.7746 114.515C48.2198 115.99 50.6013 116.517 51.0939 115.692Z" fill="white"/>
<path d="M35.9101 115.096C35.879 115.516 35.7459 115.922 35.5226 116.279C35.2993 116.635 34.9925 116.931 34.629 117.141C33.4252 117.786 31.7351 117.211 31.1681 115.963C30.8739 115.314 30.8685 114.586 30.8093 113.87C30.79 113.637 30.7589 113.404 30.716 113.174C30.5366 112.245 29.7723 111.259 28.8483 111.443C28.0858 111.593 27.6839 112.453 27.5924 113.228C27.5687 113.441 27.5568 113.656 27.5565 113.87C27.5565 114.094 27.5655 114.317 27.578 114.541C27.6031 114.999 27.6426 115.459 27.6408 115.917C27.6408 116.818 27.447 117.775 26.7994 118.394C26.0135 119.146 24.8078 119.18 23.7206 119.167C21.067 119.14 18.1139 118.987 16.117 117.346C15.8712 117.147 15.6431 116.927 15.4352 116.688C15.045 116.237 14.7283 115.726 14.4969 115.175C14.319 114.755 14.1826 114.318 14.0896 113.87C13.7917 112.473 13.8581 110.949 14.1021 109.532C14.26 108.605 14.565 107.59 15.2396 106.999C15.4003 106.858 15.5819 106.743 15.7779 106.658C16.1008 106.521 16.4668 106.477 16.7485 106.263C17.0302 106.048 17.2132 105.659 17.511 105.425C18.1085 104.954 19.0163 105.156 19.716 104.997H19.7465L19.7842 104.986C20.5396 104.806 21.2375 104.391 21.9498 104.085C22.2566 103.953 22.5634 103.827 22.872 103.715C23.6403 103.407 24.4698 103.283 25.2941 103.355C27.9853 103.663 31.2148 105.304 33.0574 107.273C33.5113 107.726 33.8647 108.27 34.0944 108.87C34.2449 109.373 34.3282 109.894 34.342 110.419C34.3904 111.16 34.4299 111.899 34.7959 112.532C35.0184 112.914 35.3449 113.226 35.5764 113.614C35.6297 113.701 35.6765 113.792 35.7163 113.886C35.8808 114.267 35.9474 114.683 35.9101 115.096Z" fill="#BE6F72"/>
<path d="M29.9913 106.196C31.0875 106.766 32.1658 107.409 33.027 108.296C33.8882 109.184 34.5233 110.347 34.5736 111.587C35.3263 110.672 35.9722 109.673 36.4987 108.61C36.915 107.772 37.2576 106.78 36.888 105.918C36.7114 105.553 36.463 105.228 36.1578 104.963C34.5431 103.426 32.3722 102.577 30.1761 102.229C27.8024 101.852 23.0605 101.03 22.6963 104.503C25.3552 104.377 27.6159 104.966 29.9913 106.196Z" fill="#E3E8F4"/>
<path d="M59.4012 61.7939C57.6447 62.5566 55.5886 62.0175 53.7317 62.4791C52.3609 62.8199 51.1822 63.6836 50.0698 64.558C47.8522 66.2998 45.667 68.2471 44.481 70.8128C44.0935 71.6531 43.8172 72.5456 43.3525 73.3371C42.6007 74.6281 41.4005 75.5892 40.1499 76.4023C36.9545 78.4722 33.2442 79.7668 30.4005 82.3019C29.1841 83.3838 28.1596 84.6676 27.2069 85.9892C26.0874 87.5398 25.0163 89.2708 24.9947 91.1856C24.9947 91.9357 25.1418 92.6966 24.9947 93.434C24.679 95.0838 23.0212 96.108 22.273 97.6117C21.5553 99.0452 21.7258 100.816 20.9274 102.201C20.4035 103.102 19.4544 104.004 19.754 104.999C21.9536 103.338 24.5982 102.655 27.2894 103.196C28.6369 103.464 29.8946 104.068 31.1002 104.73C32.4979 105.498 33.8758 106.371 34.8859 107.615C35.896 108.859 36.5006 110.514 36.1418 112.074C37.5969 111.353 38.458 109.813 39.0555 108.298C39.653 106.784 40.1087 105.167 41.1008 103.885C41.6122 103.223 42.2473 102.673 42.8519 102.098C46.2088 98.9009 48.6291 94.8621 51.0046 90.8755C53.4542 86.7669 55.9026 82.656 58.3498 78.5426C59.028 77.4012 59.7098 76.2527 60.1996 75.0194C61.8448 70.8724 60.7791 66.0293 59.4012 61.7939Z" fill="#FF4400"/>
<path d="M161.889 116.872C167.538 116.872 172.117 115.987 172.117 114.896C172.117 113.805 167.538 112.92 161.889 112.92C156.24 112.92 151.66 113.805 151.66 114.896C151.66 115.987 156.24 116.872 161.889 116.872Z" fill="#FF4400"/>
<path d="M161.716 115.624C162.374 115.624 162.908 114.922 162.908 114.057C162.908 113.192 162.374 112.49 161.716 112.49C161.058 112.49 160.525 113.192 160.525 114.057C160.525 114.922 161.058 115.624 161.716 115.624Z" fill="#3F3D56"/>
<path d="M161.716 113.708C162.374 113.708 162.908 113.006 162.908 112.141C162.908 111.276 162.374 110.574 161.716 110.574C161.058 110.574 160.525 111.276 160.525 112.141C160.525 113.006 161.058 113.708 161.716 113.708Z" fill="#3F3D56"/>
<path d="M161.716 111.793C162.374 111.793 162.908 111.091 162.908 110.226C162.908 109.361 162.374 108.659 161.716 108.659C161.058 108.659 160.525 109.361 160.525 110.226C160.525 111.091 161.058 111.793 161.716 111.793Z" fill="#3F3D56"/>
<path d="M161.716 109.878C162.374 109.878 162.908 109.176 162.908 108.311C162.908 107.446 162.374 106.744 161.716 106.744C161.058 106.744 160.525 107.446 160.525 108.311C160.525 109.176 161.058 109.878 161.716 109.878Z" fill="#3F3D56"/>
<path d="M161.716 107.963C162.374 107.963 162.908 107.261 162.908 106.396C162.908 105.531 162.374 104.829 161.716 104.829C161.058 104.829 160.525 105.531 160.525 106.396C160.525 107.261 161.058 107.963 161.716 107.963Z" fill="#3F3D56"/>
<path d="M161.716 106.048C162.374 106.048 162.908 105.346 162.908 104.481C162.908 103.616 162.374 102.914 161.716 102.914C161.058 102.914 160.525 103.616 160.525 104.481C160.525 105.346 161.058 106.048 161.716 106.048Z" fill="#3F3D56"/>
<path d="M161.716 104.134C162.374 104.134 162.908 103.432 162.908 102.567C162.908 101.702 162.374 101 161.716 101C161.058 101 160.525 101.702 160.525 102.567C160.525 103.432 161.058 104.134 161.716 104.134Z" fill="#3F3D56"/>
<path d="M166.176 89.4604C166.339 89.2526 166.487 89.034 166.62 88.8059L163.491 88.2884L166.874 88.3137C167.199 87.6039 167.376 86.835 167.395 86.0541C167.414 85.2731 167.274 84.4965 166.984 83.7718L162.443 86.1392L166.63 83.0451C166.238 82.3633 165.711 81.7698 165.081 81.3019C164.45 80.8339 163.731 80.5014 162.967 80.3252C162.203 80.1489 161.412 80.1326 160.642 80.2774C159.871 80.4221 159.139 80.7248 158.49 81.1664C157.841 81.6081 157.29 82.1794 156.871 82.8446C156.451 83.5098 156.173 84.2547 156.052 85.0328C155.932 85.811 155.973 86.6057 156.171 87.3675C156.37 88.1292 156.723 88.8417 157.208 89.4604C156.955 89.785 156.737 90.1356 156.558 90.5062L160.62 92.6284L156.285 91.1661C155.981 92.0696 155.906 93.035 156.066 93.975C156.227 94.9151 156.618 95.8001 157.204 96.5501C156.542 97.3959 156.131 98.4117 156.016 99.4815C155.902 100.551 156.09 101.632 156.558 102.599C157.025 103.567 157.755 104.383 158.662 104.954C159.57 105.525 160.619 105.827 161.689 105.827C162.76 105.827 163.809 105.525 164.716 104.954C165.624 104.383 166.353 103.567 166.821 102.599C167.289 101.632 167.476 100.551 167.362 99.4815C167.248 98.4117 166.836 97.3959 166.175 96.5501C166.965 95.5392 167.395 94.2908 167.395 93.0052C167.395 91.7196 166.965 90.4713 166.175 89.4604H166.176Z" fill="#FF4400"/>
<path opacity="0.1" d="M155.987 93.0044C155.985 94.2904 156.415 95.5394 157.207 96.5493C156.546 97.3951 156.134 98.4109 156.02 99.4807C155.906 100.55 156.093 101.631 156.561 102.599C157.029 103.566 157.758 104.382 158.666 104.953C159.573 105.524 160.622 105.827 161.693 105.827C162.763 105.827 163.812 105.524 164.72 104.953C165.627 104.382 166.357 103.566 166.824 102.599C167.292 101.631 167.48 100.55 167.366 99.4807C167.251 98.4109 166.84 97.3951 166.178 96.5493C166.941 95.5738 155.987 92.3608 155.987 93.0044Z" fill="black"/>
<path d="M84.1606 32.8944C85.4165 33.3812 86.6419 34.0808 87.9893 34.1728C89.6992 34.2882 91.3139 33.4119 93.013 33.1703C96.1258 32.7285 99.0808 34.4324 102.005 35.59C104.93 36.7476 108.697 37.2272 110.841 34.9175C112.663 32.9539 112.411 29.6886 110.947 27.4528C109.483 25.217 107.092 23.7709 104.727 22.525C102.118 21.1511 99.3983 19.9016 96.4936 19.4165C90.3289 18.3906 84.0655 20.9528 78.9504 24.5607C77.2531 25.7579 75.5756 27.1553 74.7646 29.0683C74.3053 30.1502 74.1618 31.5349 74.5619 32.6618C75.2185 34.5154 75.6491 34.2954 77.0109 33.8122C79.6124 32.8926 81.15 31.7369 84.1606 32.8944Z" fill="#3F3D56"/>
</g>
<defs>
<clipPath id="clip0_716_904">
<rect width="177.788" height="144.124" fill="white" transform="translate(0.647949 0.450195)"/>
</clipPath>
</defs>
</svg>
