<svg width="187" height="170" viewBox="0 0 187 170" fill="none" xmlns="http://www.w3.org/2000/svg">
<g clip-path="url(#clip0_709_875)">
<path d="M85.5821 93.532C85.5489 93.532 85.528 93.5312 85.5207 93.5308L81.5437 93.5312V92.9493H85.5351C85.6275 92.9526 87.5129 93.0054 89.2501 90.9139C91.8389 87.7967 93.9649 80.08 89.3913 61.02C83.2415 35.391 88.3707 12.7493 90.8614 4.2043C90.9841 3.78155 91.006 3.33627 90.9255 2.90365C90.8449 2.47103 90.6641 2.06292 90.3973 1.71157C90.1304 1.36022 89.7849 1.07525 89.388 0.879181C88.9911 0.683115 88.5537 0.581322 88.1103 0.581845H28.7159C28.2644 0.582446 27.8193 0.688684 27.4169 0.891935C27.0145 1.09519 26.666 1.38973 26.3998 1.75164C25.3447 3.19176 23.8967 5.95837 22.9907 10.9608L22.4136 10.858C23.3393 5.74684 24.8343 2.89885 25.9255 1.40958C26.2462 0.97349 26.666 0.618576 27.1508 0.373659C27.6357 0.128743 28.1719 0.00072463 28.7159 1.5832e-06H88.1103C88.6446 -0.000508558 89.1717 0.122272 89.65 0.358642C90.1282 0.595012 90.5445 0.938496 90.866 1.36196C91.1875 1.78542 91.4053 2.27725 91.5023 2.7986C91.5992 3.31996 91.5727 3.85654 91.4247 4.36596C88.9469 12.8666 83.8442 35.3909 89.9618 60.8853C94.5997 80.2134 92.3701 88.0973 89.6831 91.3075C87.9107 93.4248 85.9579 93.532 85.5821 93.532Z" fill="#E6E6E6"/>
<path d="M74.8805 104.15C74.8473 104.15 74.8264 104.149 74.8191 104.149L70.842 104.149V103.568H74.8335C74.9264 103.57 76.8113 103.624 78.5485 101.532C81.1373 98.4149 83.2633 90.6982 78.6897 71.6381C72.5399 46.0092 77.6691 23.3674 80.1597 14.8225C80.2825 14.3997 80.3044 13.9544 80.2239 13.5218C80.1433 13.0892 79.9625 12.6811 79.6957 12.3297C79.4288 11.9784 79.0833 11.6934 78.6864 11.4973C78.2895 11.3013 77.8521 11.1995 77.4087 11.2H18.0143C17.5627 11.2006 17.1177 11.3068 16.7153 11.5101C16.3128 11.7133 15.9644 12.0079 15.6982 12.3698C14.6431 13.8099 13.1951 16.5765 12.2891 21.579L11.7119 21.4762C12.6376 16.365 14.1327 13.517 15.2239 12.0277C15.5445 11.5917 15.9643 11.2367 16.4492 10.9918C16.934 10.7469 17.4703 10.6189 18.0143 10.6182H77.4087C77.943 10.6177 78.4701 10.7404 78.9483 10.9768C79.4266 11.2132 79.8429 11.5567 80.1644 11.9801C80.4858 12.4036 80.7037 12.8954 80.8006 13.4168C80.8976 13.9381 80.8711 14.4747 80.7231 14.9841C78.2453 23.4848 73.1426 46.009 79.2602 71.5035C83.8981 90.8316 81.6685 98.7154 78.9815 101.926C77.2091 104.043 75.2563 104.15 74.8805 104.15Z" fill="#CCCCCC"/>
<path d="M64.1788 114.769C64.1456 114.769 64.1247 114.768 64.1174 114.768L5.63848 114.768C5.07546 114.769 4.52086 114.633 4.02321 114.372C3.52556 114.11 3.10002 113.732 2.78384 113.27C2.46767 112.808 2.27049 112.275 2.20956 111.72C2.14863 111.165 2.2258 110.603 2.43433 110.084C4.55614 104.824 7.41305 92.2043 2.70745 66.7835C-2.84903 36.7661 2.1255 25.9178 4.52214 22.6469C4.84283 22.2108 5.26264 21.8559 5.7475 21.611C6.23235 21.366 6.76859 21.238 7.31266 21.2373H66.707C67.2413 21.2368 67.7684 21.3596 68.2466 21.5959C68.7249 21.8323 69.1412 22.1758 69.4627 22.5993C69.7841 23.0227 70.002 23.5146 70.0989 24.0359C70.1959 24.5573 70.1694 25.0938 70.0214 25.6033C67.5436 34.1039 62.4409 56.6282 68.5585 82.1226C73.1964 101.451 70.9669 109.335 68.2798 112.545C66.5074 114.662 64.5546 114.769 64.1788 114.769ZM7.31266 21.8191C6.86108 21.8197 6.41602 21.926 6.01357 22.1292C5.61113 22.3325 5.26266 22.627 4.99643 22.9889C2.64424 26.1992 -2.23129 36.8826 3.28417 66.6783C7.77943 90.9626 5.59925 103.804 2.9787 110.3C2.80208 110.729 2.73579 111.194 2.7858 111.655C2.83581 112.115 3.00056 112.556 3.26516 112.937C3.52754 113.322 3.88113 113.638 4.29492 113.855C4.70871 114.073 5.17005 114.187 5.63847 114.187H64.1318C64.2241 114.191 66.1096 114.243 67.8468 112.151C70.4356 109.034 72.5616 101.317 67.988 82.2573C61.8382 56.6283 66.9674 33.9866 69.458 25.4416C69.5808 25.0189 69.6027 24.5736 69.5222 24.141C69.4416 23.7083 69.2608 23.3002 68.994 22.9489C68.7271 22.5975 68.3816 22.3126 67.9847 22.1165C67.5878 21.9204 67.1504 21.8186 66.707 21.8191H7.31266Z" fill="#3F3D56"/>
<path d="M56.6044 47.4204H9.98619C9.36411 47.4204 8.7675 47.1752 8.32762 46.7387C7.88775 46.3022 7.64062 45.7103 7.64062 45.093C7.64062 44.4757 7.88775 43.8838 8.32762 43.4473C8.7675 43.0108 9.36411 42.7656 9.98619 42.7656H56.6044C57.2265 42.7656 57.8231 43.0108 58.263 43.4473C58.7028 43.8838 58.95 44.4757 58.95 45.093C58.95 45.7103 58.7028 46.3022 58.263 46.7387C57.8231 47.1752 57.2265 47.4204 56.6044 47.4204Z" fill="#FF4400"/>
<path d="M56.6044 57.312H9.98619C9.36411 57.312 8.7675 57.0668 8.32762 56.6303C7.88775 56.1938 7.64062 55.6019 7.64062 54.9846C7.64062 54.3673 7.88775 53.7754 8.32762 53.3389C8.7675 52.9024 9.36411 52.6572 9.98619 52.6572H56.6044C57.2265 52.6572 57.8231 52.9024 58.263 53.3389C58.7028 53.7754 58.95 54.3673 58.95 54.9846C58.95 55.6019 58.7028 56.1938 58.263 56.6303C57.8231 57.0668 57.2265 57.312 56.6044 57.312Z" fill="#CCCCCC"/>
<path d="M56.6044 67.2026H9.98619C9.36411 67.2026 8.7675 66.9574 8.32762 66.5209C7.88775 66.0845 7.64062 65.4925 7.64062 64.8752C7.64062 64.258 7.88775 63.666 8.32762 63.2295C8.7675 62.7931 9.36411 62.5479 9.98619 62.5479H56.6044C57.2265 62.5479 57.8231 62.7931 58.263 63.2295C58.7028 63.666 58.95 64.258 58.95 64.8752C58.95 65.4925 58.7028 66.0845 58.263 66.5209C57.8231 66.9574 57.2265 67.2026 56.6044 67.2026Z" fill="#CCCCCC"/>
<path d="M60.123 77.0942H13.5047C12.8827 77.0942 12.2861 76.849 11.8462 76.4125C11.4063 75.9761 11.1592 75.3841 11.1592 74.7668C11.1592 74.1496 11.4063 73.5576 11.8462 73.1211C12.2861 72.6847 12.8827 72.4395 13.5047 72.4395H60.123C60.745 72.4395 61.3416 72.6847 61.7815 73.1211C62.2214 73.5576 62.4685 74.1496 62.4685 74.7668C62.4685 75.3841 62.2214 75.9761 61.7815 76.4125C61.3416 76.849 60.745 77.0942 60.123 77.0942Z" fill="#CCCCCC"/>
<path d="M60.123 86.9858H13.5047C12.8827 86.9858 12.2861 86.7406 11.8462 86.3041C11.4063 85.8677 11.1592 85.2757 11.1592 84.6584C11.1592 84.0412 11.4063 83.4492 11.8462 83.0127C12.2861 82.5763 12.8827 82.3311 13.5047 82.3311H60.123C60.745 82.3311 61.3416 82.5763 61.7815 83.0127C62.2214 83.4492 62.4685 84.0412 62.4685 84.6584C62.4685 85.2757 62.2214 85.8677 61.7815 86.3041C61.3416 86.7406 60.745 86.9858 60.123 86.9858Z" fill="#CCCCCC"/>
<path d="M31.9759 37.5288H9.98619C9.36411 37.5288 8.7675 37.2836 8.32762 36.8471C7.88775 36.4106 7.64062 35.8187 7.64062 35.2014C7.64062 34.5841 7.88775 33.9922 8.32762 33.5557C8.7675 33.1192 9.36411 32.874 9.98619 32.874H31.9759C32.598 32.874 33.1946 33.1192 33.6345 33.5557C34.0744 33.9922 34.3215 34.5841 34.3215 35.2014C34.3215 35.8187 34.0744 36.4106 33.6345 36.8471C33.1946 37.2836 32.598 37.5288 31.9759 37.5288Z" fill="#FF4400"/>
<path d="M29.1366 102.934C29.6098 100.946 31.8334 100.294 33.6513 100.367C34.7999 100.444 35.9392 100.623 37.0556 100.902C38.2237 101.161 39.3804 101.468 40.5314 101.794C42.642 102.391 44.7307 103.113 46.8761 103.58C48.6621 103.969 50.6029 104.197 52.384 103.66C54.0961 103.144 55.5486 101.878 56.0144 100.127C56.4534 98.4771 55.8507 96.673 54.2394 95.919C52.77 95.2314 50.9138 95.581 50.1855 97.1361C49.3643 98.8893 50.1848 100.801 51.4851 102.07C52.2241 102.759 53.0336 103.369 53.9004 103.89C54.7801 104.485 55.7593 104.921 56.7924 105.176C58.4885 105.535 60.509 105.006 61.3837 103.398C61.5781 103.034 61.6951 102.634 61.7273 102.223C61.7791 101.664 60.8992 101.668 60.8477 102.223C60.6994 103.824 58.8098 104.574 57.3967 104.398C56.4428 104.242 55.5319 103.891 54.7212 103.368C53.9387 102.915 53.1972 102.396 52.5051 101.817C51.3066 100.788 50.1831 99.0939 50.9881 97.4879C51.6435 96.1802 53.3522 96.1933 54.3914 97.0366C55.6499 98.058 55.4255 99.9117 54.5954 101.125C53.6763 102.468 52.0104 103.031 50.4397 103.091C48.733 103.157 47.0405 102.769 45.4094 102.309C43.3827 101.738 41.3761 101.099 39.3396 100.561C38.1835 100.256 37.0184 99.9805 35.8414 99.7662C34.7285 99.5228 33.5854 99.4443 32.4493 99.5332C30.6139 99.7435 28.7403 100.804 28.2884 102.702C28.1584 103.249 29.0063 103.482 29.1366 102.934Z" fill="#3F3D56"/>
<path d="M119.001 152.28C119.052 158.009 119.475 163.728 120.267 169.402C120.295 169.601 120.325 169.801 120.353 170L174.419 169.7C174.578 169.502 174.734 169.302 174.886 169.099C175.39 168.429 175.863 167.739 176.298 167.025C178.385 163.587 179.341 159.562 178.383 156.785L178.366 156.742C178.159 156.134 177.833 155.572 177.407 155.089C175.224 152.651 170.809 153.057 166.803 155.026C170.396 151.123 173.258 146.198 173.475 141.802C173.688 137.515 171.429 134.452 168.978 131.849C168.898 131.763 168.817 131.679 168.737 131.595C168.698 131.552 168.656 131.512 168.617 131.469C166.705 129.485 164.476 127.53 161.25 127.766C157.711 128.026 153.788 130.967 151.037 134.394C148.286 137.819 146.458 141.71 144.605 145.507C142.749 149.301 140.742 153.193 137.765 156.436C141.797 151.375 145.048 145.617 146.249 140.017C147.45 134.417 146.393 129.038 142.8 126.4C141.709 125.624 140.446 125.119 139.118 124.926C138.963 124.901 138.805 124.88 138.645 124.862C135.318 124.486 131.346 125.628 127.967 128.357C124.245 131.362 121.664 135.816 120.38 140.045C119.097 144.274 118.96 148.345 119.001 152.28Z" fill="#F2F2F2"/>
<path d="M154.375 169.811L155.408 169.805C155.737 169.602 156.066 169.4 156.398 169.201C156.603 169.073 156.81 168.949 157.018 168.823C160.447 166.745 163.898 164.752 167.37 162.843C170.839 160.933 174.326 159.111 177.83 157.376C177.922 157.336 177.998 157.265 178.044 157.175C178.089 157.086 178.102 156.983 178.079 156.885C178.075 156.872 178.069 156.86 178.061 156.849C178.013 156.758 177.903 156.72 177.744 156.798C177.314 157.012 176.882 157.226 176.452 157.444C172.939 159.208 169.44 161.06 165.957 163C162.476 164.939 159.015 166.964 155.574 169.074C155.501 169.117 155.429 169.164 155.357 169.207C155.028 169.408 154.703 169.61 154.375 169.811Z" fill="white"/>
<path d="M141.044 169.886L141.683 169.882C141.827 169.682 141.969 169.482 142.113 169.281C145.501 164.568 148.888 159.854 152.274 155.14C157.82 147.423 163.364 139.706 168.906 131.989C168.939 131.947 168.963 131.9 168.978 131.849C169.025 131.678 168.899 131.578 168.736 131.596C168.668 131.605 168.603 131.629 168.544 131.666C168.486 131.703 168.436 131.752 168.399 131.809C165.29 136.137 162.181 140.463 159.074 144.788C153.557 152.466 148.041 160.144 142.526 167.821C142.176 168.308 141.825 168.798 141.474 169.285C141.33 169.485 141.186 169.685 141.044 169.886Z" fill="white"/>
<path d="M126.802 166.201C126.834 167.27 126.906 168.322 126.999 169.365C127.017 169.564 127.035 169.763 127.053 169.963L127.724 169.959C127.703 169.76 127.683 169.56 127.665 169.361C127.523 167.855 127.422 166.332 127.409 164.768C127.391 160.432 127.817 156.105 128.68 151.854C129.597 147.277 130.915 142.787 132.617 138.437C134.403 133.848 136.558 129.409 139.058 125.162C139.105 125.093 139.126 125.009 139.118 124.926C139.09 124.736 138.835 124.68 138.645 124.861C138.608 124.897 138.575 124.938 138.549 124.982C138.24 125.51 137.936 126.039 137.638 126.571C135.229 130.841 133.167 135.296 131.472 139.892C129.858 144.257 128.63 148.753 127.802 153.329C127.027 157.575 126.691 161.888 126.802 166.201Z" fill="white"/>
<path d="M61.4554 103.141C61.3441 103.049 61.2628 102.927 61.2217 102.789C61.1805 102.652 61.1813 102.505 61.2241 102.368C61.2668 102.231 61.3494 102.109 61.4617 102.018C61.5739 101.928 61.7107 101.872 61.8547 101.858C63.4539 101.705 65.0678 101.869 66.6024 102.341L82.2342 107.131C82.4366 107.193 82.6246 107.294 82.7876 107.428C82.9506 107.563 83.0855 107.727 83.1843 107.913C83.2832 108.099 83.3443 108.302 83.364 108.511C83.3837 108.721 83.3617 108.932 83.2992 109.132C83.2367 109.333 83.1349 109.52 82.9998 109.682C82.8646 109.843 82.6987 109.977 82.5114 110.075C82.3241 110.173 82.1192 110.234 81.9084 110.253C81.6975 110.273 81.4849 110.251 81.2825 110.189L65.6507 105.399C64.1151 104.93 62.689 104.163 61.4554 103.141Z" fill="#3F3D56"/>
<path d="M125.532 123.04C125.108 122.864 124.727 122.597 124.418 122.258C124.109 121.92 123.878 121.518 123.742 121.082C123.606 120.645 123.568 120.185 123.63 119.732C123.693 119.279 123.855 118.846 124.105 118.462L121.426 104.559L128.255 104.03L128.667 117.63C129.289 118.089 129.719 118.759 129.877 119.512C130.034 120.265 129.908 121.05 129.522 121.717C129.135 122.384 128.516 122.887 127.781 123.131C127.045 123.375 126.245 123.342 125.532 123.04Z" fill="#FFB8B8"/>
<path d="M121.004 115.864L114.049 83.7222C113.763 82.4021 114.018 81.0234 114.757 79.8895C115.495 78.7556 116.658 77.9594 117.988 77.6759C119.319 77.3925 120.708 77.6451 121.851 78.3782C122.994 79.1113 123.796 80.2648 124.082 81.5849L131.038 113.726C131.111 114.066 131.045 114.42 130.855 114.712C130.665 115.003 130.366 115.208 130.025 115.281L122.571 116.869C122.402 116.905 122.227 116.908 122.057 116.877C121.886 116.846 121.723 116.782 121.578 116.689C121.432 116.595 121.307 116.474 121.208 116.333C121.11 116.191 121.041 116.032 121.004 115.864Z" fill="#FF4400"/>
<path d="M109.588 166.426H105.993L104.283 152.669L109.589 152.669L109.588 166.426Z" fill="#FFB8B8"/>
<path d="M103.426 165.406H110.358V169.737H99.061C99.061 169.168 99.1739 168.605 99.3933 168.08C99.6126 167.554 99.9341 167.077 100.339 166.675C100.745 166.273 101.226 165.954 101.755 165.736C102.285 165.518 102.853 165.406 103.426 165.406Z" fill="#2F2E41"/>
<path d="M121.609 166.135H118.014L116.304 152.378L121.61 152.378L121.609 166.135Z" fill="#FFB8B8"/>
<path d="M115.447 165.115H122.379V169.446H111.082C111.082 168.877 111.195 168.314 111.414 167.789C111.634 167.263 111.955 166.786 112.36 166.384C112.766 165.982 113.247 165.663 113.776 165.445C114.306 165.227 114.874 165.115 115.447 165.115Z" fill="#2F2E41"/>
<path d="M105.281 163.859C105.146 163.75 105.035 163.614 104.954 163.461C104.872 163.308 104.823 163.141 104.807 162.968L100.628 117.358C100.612 117.181 100.633 117.002 100.688 116.833C100.744 116.664 100.833 116.508 100.952 116.375C101.07 116.241 101.215 116.133 101.376 116.057C101.538 115.981 101.714 115.938 101.893 115.931L122.851 115.151C123.032 115.145 123.213 115.175 123.382 115.241C123.551 115.307 123.704 115.406 123.833 115.534C123.961 115.661 124.061 115.813 124.128 115.981C124.194 116.148 124.225 116.328 124.219 116.508L122.543 161.943C122.531 162.261 122.403 162.564 122.182 162.795C121.961 163.026 121.664 163.169 121.344 163.199L117.118 163.58C116.943 163.596 116.767 163.576 116.599 163.524C116.431 163.471 116.276 163.385 116.142 163.272C116.008 163.158 115.899 163.019 115.82 162.863C115.741 162.707 115.694 162.537 115.683 162.363L113.743 133.499C113.742 133.443 113.729 133.389 113.707 133.338C113.684 133.287 113.651 133.242 113.61 133.204C113.569 133.166 113.521 133.137 113.469 133.117C113.416 133.098 113.361 133.089 113.305 133.092H113.303C113.247 133.089 113.191 133.098 113.138 133.118C113.086 133.137 113.038 133.167 112.997 133.206C112.956 133.244 112.924 133.29 112.901 133.341C112.878 133.392 112.866 133.446 112.865 133.502L111.13 162.561C111.112 162.872 110.983 163.167 110.766 163.392C110.548 163.616 110.257 163.756 109.944 163.786L106.253 164.153C106.079 164.17 105.904 164.153 105.737 164.103C105.57 164.053 105.415 163.97 105.281 163.859Z" fill="#2F2E41"/>
<path d="M113.343 70.8463C117.32 70.8463 120.544 67.6473 120.544 63.701C120.544 59.7547 117.32 56.5557 113.343 56.5557C109.366 56.5557 106.142 59.7547 106.142 63.701C106.142 67.6473 109.366 70.8463 113.343 70.8463Z" fill="#FFB8B8"/>
<path d="M99.4751 117.667C99.3469 117.523 99.2527 117.352 99.1993 117.167C99.1459 116.981 99.1347 116.787 99.1664 116.597C100.496 108.579 99.7466 96.7927 98.8838 88.3173C98.6587 86.0691 99.0345 83.8016 99.9734 81.7433C100.912 79.685 102.381 77.9085 104.232 76.5927L107.993 73.3942C108.243 73.1841 108.562 73.0721 108.889 73.0794L118.232 73.3442C118.569 73.3534 118.89 73.4906 119.128 73.7275L120.571 76.8998L120.586 76.9106C122.307 78.1654 123.687 79.8236 124.603 81.7371C125.52 83.6505 125.944 85.7595 125.839 87.8755L124.464 116.076C124.446 116.404 124.305 116.714 124.07 116.944C123.834 117.175 123.52 117.309 123.189 117.322L100.511 118.112C100.496 118.113 100.482 118.113 100.467 118.113C100.279 118.113 100.094 118.074 99.9226 117.997C99.7514 117.92 99.5988 117.807 99.4751 117.667Z" fill="#FF4400"/>
<path d="M72.2734 105.899C72.2621 105.443 72.3519 104.989 72.5364 104.57C72.7209 104.152 72.9957 103.778 73.3413 103.477C73.687 103.175 74.0952 102.952 74.5371 102.823C74.979 102.695 75.4439 102.664 75.8991 102.733L87.5874 94.6172L90.8681 100.583L78.5314 106.523C78.3636 107.274 77.9239 107.938 77.2958 108.388C76.6677 108.839 75.8947 109.046 75.1233 108.969C74.352 108.892 73.6358 108.537 73.1105 107.972C72.5853 107.406 72.2874 106.669 72.2734 105.899Z" fill="#FFB8B8"/>
<path d="M82.1098 107.31C81.9384 107.284 81.7739 107.225 81.6257 107.136C81.4774 107.047 81.3485 106.93 81.2463 106.791L76.7356 100.693C76.529 100.413 76.4427 100.063 76.4957 99.7198C76.5488 99.3767 76.7367 99.0685 77.0185 98.8627L103.727 79.4108C104.824 78.6118 106.196 78.278 107.541 78.4827C108.207 78.5841 108.847 78.8147 109.423 79.1612C109.999 79.5078 110.501 79.9636 110.9 80.5026C111.298 81.0415 111.586 81.6532 111.747 82.3025C111.907 82.9519 111.937 83.6262 111.835 84.2871C111.733 84.9479 111.5 85.5823 111.151 86.1541C110.802 86.7258 110.342 87.2237 109.799 87.6193L83.0905 107.071C82.8653 107.236 82.5927 107.325 82.3127 107.325C82.2448 107.325 82.177 107.32 82.1098 107.31Z" fill="#FF4400"/>
<path d="M113.711 70.0615C114.666 68.8997 114.561 67.1299 113.795 65.8379C113.029 64.5459 111.727 63.656 110.389 62.961C109.05 62.2659 107.628 61.7194 106.368 60.8918C105.108 60.0642 105.163 56.5607 104.827 55.0989L105.627 55.3633C105.32 54.9729 105.221 53.8195 104.914 53.4291C105.818 53.5177 106.513 54.3695 107.417 54.4581L106.895 53.0686C109.996 52.8789 111.923 55.0166 115.024 54.827C116.56 54.733 118.228 54.6735 119.491 55.5464C120.588 56.305 121.144 57.6179 121.508 58.8947C122.291 61.6361 122.412 64.7069 121.061 67.2208C119.709 69.7347 116.593 71.4286 113.871 70.5209L113.711 70.0615Z" fill="#2F2E41"/>
<path d="M74.175 169.898H185.883C185.961 169.898 186.035 169.868 186.09 169.813C186.145 169.758 186.176 169.684 186.176 169.607C186.176 169.53 186.145 169.456 186.09 169.402C186.035 169.347 185.961 169.316 185.883 169.316H74.175C74.0973 169.316 74.0227 169.347 73.9677 169.402C73.9127 169.456 73.8818 169.53 73.8818 169.607C73.8818 169.684 73.9127 169.758 73.9677 169.813C74.0227 169.868 74.0973 169.898 74.175 169.898Z" fill="#3F3D56"/>
</g>
<defs>
<clipPath id="clip0_709_875">
<rect width="186" height="170" fill="white" transform="translate(0.175781)"/>
</clipPath>
</defs>
</svg>
