<svg width="187" height="134" viewBox="0 0 187 134" fill="none" xmlns="http://www.w3.org/2000/svg">
<g clip-path="url(#clip0_718_964)">
<path d="M25.5723 132.992C25.5701 132.999 25.5701 133.008 25.5679 133.014H11.1671C10.896 132.844 10.6294 132.666 10.3672 132.487C8.74807 131.392 7.2528 130.126 5.90763 128.71C4.3656 127.07 3.09164 125.2 2.13245 123.166C0.232641 119.122 -0.351744 114.522 1.11922 110.366L1.11937 110.365L1.11985 110.365L1.12058 110.364L1.12144 110.364C1.15699 110.26 1.19699 110.153 1.23699 110.047C1.29698 110.151 1.35475 110.253 1.41697 110.355L1.41919 110.357C2.24482 111.743 3.18109 113.06 4.21891 114.296V114.299C4.29891 114.394 4.37889 114.489 4.46111 114.582L4.46126 114.583L4.46174 114.584L4.46247 114.584L4.46333 114.585C6.9833 117.524 10.0278 119.971 13.4424 121.802C13.4535 121.809 13.4624 121.813 13.4735 121.82C13.4849 121.827 13.4968 121.833 13.5091 121.838C13.5113 121.84 13.5135 121.84 13.5158 121.842C14.2735 122.25 15.0512 122.622 15.8422 122.959V122.962C16.4644 123.23 17.0976 123.474 17.7353 123.7C19.0952 124.176 20.5617 124.611 21.8638 125.238C23.1304 125.848 24.2458 126.639 24.9724 127.83C25.0279 127.927 25.0835 128.022 25.1346 128.12L24.7102 131.05L25.5568 131.046L25.4768 132.487L25.4546 132.904L25.5723 132.992Z" fill="#F0F0F0"/>
<path d="M22.0173 133.015H21.7129C21.684 132.837 21.6551 132.662 21.6217 132.487C21.5354 132.008 21.4182 131.535 21.2707 131.071C21.204 130.862 21.1285 130.658 21.0418 130.457C20.5508 129.308 19.7064 128.3 18.4576 127.963C18.0941 127.867 17.7204 127.814 17.3444 127.805C16.6 127.774 15.8446 127.87 15.1046 127.91C14.9224 127.918 14.738 127.925 14.5603 127.923H14.5558C13.5935 127.939 12.6392 127.747 11.7583 127.36C10.6704 126.84 9.6799 126.138 8.8297 125.285C8.27339 124.754 7.7446 124.194 7.24541 123.609V123.607C7.17875 123.534 7.11432 123.458 7.04989 123.381C5.87344 121.97 4.84519 120.443 3.98131 118.823C3.54088 118.004 3.14551 117.162 2.79698 116.3C2.79236 116.293 2.78863 116.285 2.78587 116.276C2.00611 114.376 1.44697 112.393 1.11937 110.366L1.11953 110.365L1.12001 110.365L1.12073 110.364L1.1216 110.364C1.10383 110.273 1.0905 110.18 1.07715 110.089C1.04827 109.901 1.34824 109.892 1.3749 110.08C1.38824 110.173 1.40156 110.262 1.41712 110.355L1.41934 110.357C1.73464 112.298 2.26371 114.198 2.99696 116.023V116.026C3.03475 116.119 3.07251 116.21 3.11029 116.3C4.15329 118.824 5.58112 121.172 7.3432 123.261L7.34542 123.265C7.36319 123.288 7.3832 123.308 7.40319 123.33C7.40403 123.331 7.40467 123.332 7.40505 123.333C7.40544 123.334 7.40556 123.335 7.40541 123.336C7.40763 123.334 7.40763 123.336 7.40763 123.336C7.8187 123.822 8.24977 124.287 8.69862 124.74C9.52857 125.614 10.4914 126.354 11.5517 126.93C12.437 127.382 13.4166 127.621 14.4114 127.626C14.5114 127.626 14.6114 127.628 14.7113 127.626C14.7913 127.626 14.8713 127.624 14.9513 127.619C15.7046 127.584 16.469 127.488 17.2267 127.502C17.5712 127.508 17.9146 127.544 18.2532 127.608C18.8094 127.727 19.334 127.962 19.7928 128.297C20.2515 128.633 20.634 129.061 20.9152 129.554C21.1978 130.031 21.4231 130.539 21.5862 131.068C21.6418 131.241 21.6884 131.416 21.7351 131.594V131.596C21.8062 131.88 21.8684 132.168 21.9217 132.458C21.9243 132.468 21.9258 132.477 21.9262 132.487C21.9595 132.662 21.9884 132.84 22.0173 133.015Z" fill="white"/>
<path d="M7.35936 123.526C6.59772 124.092 5.65925 124.369 4.71154 124.309C3.76384 124.248 2.8686 123.853 2.18573 123.195C2.04801 123.061 2.24979 122.841 2.38768 122.975C3.02244 123.59 3.85639 123.957 4.73901 124.012C5.62163 124.067 6.49478 123.805 7.20087 123.274C7.35445 123.158 7.51206 123.412 7.35936 123.526Z" fill="white"/>
<path d="M14.3988 127.717C14.697 125.804 14.2612 123.848 13.1783 122.241C13.0709 122.082 13.3242 121.924 13.4315 122.083C14.5552 123.757 15.0046 125.793 14.6899 127.784C14.6598 127.974 14.3689 127.906 14.3988 127.717Z" fill="white"/>
<path d="M2.91648 116.066C3.25691 115.908 3.55275 115.669 3.77743 115.369C4.00211 115.069 4.14859 114.718 4.20373 114.347C4.23143 114.157 4.52231 114.225 4.49479 114.414C4.43196 114.823 4.26971 115.211 4.02221 115.542C3.77471 115.874 3.44949 116.141 3.07497 116.318C3.04107 116.338 3.00093 116.344 2.9627 116.335C2.92447 116.327 2.89103 116.304 2.86916 116.271C2.84834 116.238 2.84164 116.197 2.8505 116.159C2.85936 116.12 2.88307 116.087 2.91648 116.066Z" fill="white"/>
<path d="M27.7456 123.264L27.6234 124.388L25.6791 124.359L25.3858 126.385L25.3347 126.733V126.736L25.1347 128.121L24.7103 131.052L25.5569 131.047L25.4769 132.488L25.4547 132.905L25.5724 132.993L25.5991 133.016L25.608 133.022C25.5836 133.071 25.5569 133.12 25.5302 133.171C25.5458 133.118 25.5569 133.069 25.568 133.016H19.9419C19.8375 132.841 19.7353 132.665 19.6353 132.488C18.7671 130.981 18.0017 129.416 17.3444 127.806C17.3044 127.707 17.2622 127.607 17.2266 127.505V127.503C16.6422 126.029 16.1792 124.511 15.8423 122.963V122.961C15.6598 122.113 15.5211 121.256 15.4268 120.394C15.1859 118.165 15.2976 115.913 15.7579 113.719C15.7616 113.708 15.7646 113.697 15.7668 113.686C16.6533 109.498 18.8153 105.628 22.2394 103.176C22.3817 103.07 22.5283 102.97 22.6772 102.872C22.6794 102.87 22.6794 102.87 22.6816 102.87C22.6819 102.87 22.6822 102.87 22.6825 102.87C22.6828 102.87 22.683 102.87 22.6832 102.87C22.6834 102.869 22.6836 102.869 22.6837 102.869C22.6838 102.869 22.6839 102.868 22.6838 102.868C22.7772 102.808 22.8683 102.748 22.9616 102.688C22.9483 102.808 22.9327 102.928 22.9216 103.048C22.7421 104.649 22.6945 106.262 22.7794 107.871V107.876C22.7816 108 22.7883 108.124 22.7972 108.25V108.255C23.0394 112.121 23.9969 115.909 25.6213 119.427C25.6241 119.436 25.6278 119.445 25.6324 119.454C25.6369 119.465 25.6413 119.474 25.6458 119.485C26.2534 120.793 26.9552 122.057 27.7456 123.264Z" fill="#F0F0F0"/>
<path d="M23.0543 102.797C23.0098 102.878 22.9634 102.963 22.9215 103.047C22.5897 103.672 22.2842 104.312 22.0051 104.965C21.5064 106.118 21.0915 107.305 20.7638 108.518C20.7372 108.612 20.7111 108.709 20.6871 108.805C19.9945 111.451 19.7174 114.187 19.8658 116.917C19.8659 116.944 19.8679 116.969 19.8702 116.995C19.9055 117.632 19.9668 118.267 20.054 118.9C20.1883 120.097 20.5105 121.265 21.0088 122.362C21.0786 122.506 21.1523 122.646 21.2297 122.781C21.4223 123.112 21.6459 123.424 21.8974 123.713C22.0788 123.924 22.2742 124.122 22.4823 124.307C22.6078 124.421 22.7374 124.531 22.8727 124.636C22.9508 124.697 23.0311 124.758 23.1114 124.818C23.1778 124.863 23.2423 124.91 23.3086 124.955C23.9985 125.426 24.7425 125.845 25.3856 126.385L25.3351 126.733C24.7083 126.17 23.9519 125.745 23.2562 125.279C22.8202 124.991 22.4121 124.664 22.037 124.3C21.9878 124.25 21.9364 124.201 21.889 124.148C21.6352 123.887 21.406 123.603 21.2042 123.301C21.1015 123.149 21.0047 122.993 20.9133 122.829C20.3609 121.76 19.9944 120.606 19.8294 119.416C19.7058 118.656 19.6206 117.891 19.5742 117.122C19.566 117.023 19.5604 116.925 19.5566 116.824C19.4696 114.992 19.5703 113.155 19.8571 111.343C20.2192 109.044 20.8755 106.802 21.81 104.67C22.0769 104.06 22.368 103.459 22.6831 102.867C22.7233 102.786 22.766 102.707 22.8105 102.625C22.901 102.456 23.1448 102.628 23.0543 102.797Z" fill="white"/>
<path d="M19.7162 117.127C18.7666 117.121 17.8498 116.779 17.1298 116.162C16.4097 115.544 15.9332 114.691 15.7853 113.755C15.756 113.566 16.0497 113.511 16.079 113.701C16.2151 114.573 16.6591 115.367 17.3308 115.941C18.0025 116.515 18.8577 116.83 19.742 116.83C19.9342 116.83 19.9073 117.127 19.7162 117.127Z" fill="white"/>
<path d="M22.8074 124.701C24.2004 123.352 25.0326 121.529 25.1381 119.595C25.1483 119.404 25.4459 119.43 25.4356 119.621C25.3221 121.633 24.4522 123.529 22.9995 124.929C22.8609 125.063 22.6696 124.834 22.8074 124.701Z" fill="white"/>
<path d="M20.6712 108.501C21.0382 108.58 21.419 108.566 21.7794 108.462C22.1398 108.357 22.4686 108.165 22.7361 107.903C22.8729 107.767 23.0641 107.996 22.9282 108.131C22.6313 108.419 22.2679 108.631 21.87 108.748C21.472 108.864 21.0516 108.881 20.6453 108.798C20.6064 108.794 20.5707 108.774 20.5454 108.744C20.5202 108.714 20.5074 108.676 20.5095 108.637C20.5131 108.598 20.5321 108.561 20.5624 108.536C20.5927 108.511 20.6318 108.498 20.6712 108.501Z" fill="white"/>
<path d="M66.6482 133.194C66.6483 133.229 66.6415 133.263 66.6282 133.296C66.615 133.328 66.5955 133.357 66.5709 133.381C66.5464 133.406 66.5172 133.425 66.485 133.438C66.4529 133.452 66.4185 133.458 66.3837 133.458H4.10329C4.06856 133.458 4.03418 133.451 4.0021 133.438C3.97002 133.425 3.94087 133.405 3.91631 133.381C3.89176 133.356 3.87228 133.327 3.85899 133.295C3.8457 133.263 3.83887 133.229 3.83887 133.194C3.83887 133.16 3.8457 133.126 3.85899 133.093C3.87228 133.061 3.89176 133.032 3.91631 133.008C3.94087 132.983 3.97002 132.964 4.0021 132.951C4.03418 132.937 4.06856 132.931 4.10329 132.931H66.3837C66.4185 132.931 66.4529 132.937 66.485 132.951C66.5172 132.964 66.5464 132.983 66.5709 133.008C66.5955 133.032 66.615 133.061 66.6282 133.093C66.6415 133.125 66.6483 133.16 66.6482 133.194Z" fill="#CCCCCC"/>
<path d="M174.431 24.6222H134.165C133.992 24.6224 133.821 24.5887 133.662 24.5229C133.502 24.4572 133.357 24.3607 133.235 24.239C133.113 24.1174 133.016 23.9729 132.95 23.8138C132.884 23.6547 132.85 23.4842 132.85 23.3121C132.85 23.1399 132.884 22.9694 132.95 22.8103C133.016 22.6512 133.113 22.5067 133.235 22.3851C133.357 22.2634 133.502 22.1669 133.662 22.1012C133.821 22.0355 133.992 22.0017 134.165 22.002H174.431C174.604 22.0017 174.775 22.0355 174.934 22.1012C175.094 22.1669 175.239 22.2634 175.361 22.3851C175.483 22.5067 175.58 22.6512 175.646 22.8103C175.712 22.9694 175.746 23.1399 175.746 23.3121C175.746 23.4842 175.712 23.6547 175.646 23.8138C175.58 23.9729 175.483 24.1174 175.361 24.239C175.239 24.3607 175.094 24.4572 174.934 24.5229C174.775 24.5887 174.604 24.6224 174.431 24.6222Z" fill="#FF4400"/>
<path d="M174.431 29.7981H134.165C133.817 29.7976 133.483 29.6594 133.238 29.4137C132.992 29.1681 132.854 28.8351 132.854 28.4879C132.854 28.1407 132.992 27.8077 133.238 27.5621C133.483 27.3164 133.817 27.1782 134.165 27.1777H174.431C174.779 27.1782 175.113 27.3164 175.359 27.5621C175.605 27.8077 175.743 28.1407 175.743 28.4879C175.743 28.8351 175.605 29.1681 175.359 29.4137C175.113 29.6594 174.779 29.7976 174.431 29.7981Z" fill="#FF4400"/>
<path d="M151.62 34.9758H134.165C133.817 34.9754 133.483 34.8371 133.238 34.5915C132.992 34.3458 132.854 34.0128 132.854 33.6656C132.854 33.3185 132.992 32.9855 133.238 32.7398C133.483 32.4942 133.817 32.3559 134.165 32.3555H151.62C151.792 32.3552 151.963 32.389 152.123 32.4547C152.282 32.5204 152.427 32.6169 152.549 32.7386C152.671 32.8603 152.768 33.0048 152.834 33.1639C152.901 33.3229 152.935 33.4934 152.935 33.6656C152.935 33.8378 152.901 34.0083 152.834 34.1674C152.768 34.3265 152.671 34.471 152.549 34.5927C152.427 34.7144 152.282 34.8108 152.123 34.8766C151.963 34.9423 151.792 34.976 151.62 34.9758Z" fill="#FF4400"/>
<path d="M174.431 54.0626H134.165C133.816 54.0626 133.482 53.9246 133.236 53.6789C132.99 53.4332 132.852 53.0999 132.852 52.7525C132.852 52.405 132.99 52.0718 133.236 51.8261C133.482 51.5804 133.816 51.4424 134.165 51.4424H174.431C174.779 51.4424 175.113 51.5804 175.36 51.8261C175.606 52.0718 175.744 52.405 175.744 52.7525C175.744 53.0999 175.606 53.4332 175.36 53.6789C175.113 53.9246 174.779 54.0626 174.431 54.0626Z" fill="#E6E6E6"/>
<path d="M174.431 59.2395H134.165C133.817 59.2395 133.482 59.1014 133.236 58.8557C132.99 58.61 132.852 58.2768 132.852 57.9293C132.852 57.5818 132.99 57.2486 133.236 57.0029C133.482 56.7572 133.817 56.6191 134.165 56.6191H174.431C174.779 56.6191 175.113 56.7572 175.36 57.0029C175.606 57.2486 175.744 57.5818 175.744 57.9293C175.744 58.2768 175.606 58.61 175.36 58.8557C175.113 59.1014 174.779 59.2395 174.431 59.2395Z" fill="#E6E6E6"/>
<path d="M151.619 64.4172H134.165C133.817 64.4172 133.482 64.2792 133.236 64.0335C132.99 63.7878 132.852 63.4545 132.852 63.107C132.852 62.7596 132.99 62.4263 133.236 62.1806C133.482 61.9349 133.817 61.7969 134.165 61.7969H151.619C151.792 61.7967 151.963 61.8304 152.122 61.8961C152.282 61.9619 152.427 62.0583 152.549 62.18C152.671 62.3017 152.768 62.4462 152.834 62.6053C152.9 62.7643 152.934 62.9348 152.934 63.107C152.934 63.2792 152.9 63.4497 152.834 63.6088C152.768 63.7679 152.671 63.9124 152.549 64.0341C152.427 64.1558 152.282 64.2522 152.122 64.318C151.963 64.3837 151.792 64.4174 151.619 64.4172Z" fill="#E6E6E6"/>
<path d="M174.431 85.1231H134.165C133.992 85.1231 133.822 85.0892 133.662 85.0234C133.503 84.9576 133.358 84.8611 133.236 84.7394C133.114 84.6178 133.018 84.4733 132.952 84.3144C132.886 84.1554 132.852 83.9851 132.852 83.813C132.852 83.641 132.886 83.4706 132.952 83.3117C133.018 83.1527 133.114 83.0083 133.236 82.8867C133.358 82.765 133.503 82.6685 133.662 82.6027C133.822 82.5368 133.992 82.5029 134.165 82.5029H174.431C174.604 82.5029 174.774 82.5368 174.934 82.6027C175.093 82.6685 175.238 82.765 175.36 82.8867C175.482 83.0083 175.578 83.1527 175.644 83.3117C175.71 83.4706 175.744 83.641 175.744 83.813C175.744 83.9851 175.71 84.1554 175.644 84.3144C175.578 84.4733 175.482 84.6178 175.36 84.7394C175.238 84.8611 175.093 84.9576 174.934 85.0234C174.774 85.0892 174.604 85.1231 174.431 85.1231Z" fill="#E6E6E6"/>
<path d="M174.431 90.3H134.165C133.817 90.2996 133.483 90.1613 133.238 89.9157C132.992 89.67 132.854 89.337 132.854 88.9899C132.854 88.6427 132.992 88.3097 133.238 88.064C133.483 87.8184 133.817 87.6801 134.165 87.6797H174.431C174.779 87.6801 175.113 87.8184 175.359 88.064C175.605 88.3097 175.743 88.6427 175.743 88.9899C175.743 89.337 175.605 89.67 175.359 89.9157C175.113 90.1613 174.779 90.2996 174.431 90.3Z" fill="#E6E6E6"/>
<path d="M151.619 95.4768H134.165C133.817 95.4768 133.482 95.3388 133.236 95.0931C132.99 94.8474 132.852 94.5141 132.852 94.1666C132.852 93.8191 132.99 93.4859 133.236 93.2402C133.482 92.9945 133.817 92.8564 134.165 92.8564H151.619C151.792 92.8562 151.963 92.8899 152.122 92.9557C152.282 93.0214 152.427 93.1179 152.549 93.2396C152.671 93.3613 152.768 93.5058 152.834 93.6648C152.9 93.8239 152.934 93.9944 152.934 94.1666C152.934 94.3388 152.9 94.5093 152.834 94.6684C152.768 94.8275 152.671 94.972 152.549 95.0937C152.427 95.2153 152.282 95.3118 152.122 95.3775C151.963 95.4433 151.792 95.477 151.619 95.4768Z" fill="#E6E6E6"/>
<path d="M118.101 68.307H93.8596C93.2099 68.3063 92.5871 68.0485 92.1277 67.5902C91.6683 67.1319 91.4099 66.5105 91.4092 65.8624V49.9973C91.4099 49.3492 91.6683 48.7278 92.1277 48.2696C92.5871 47.8113 93.2099 47.5535 93.8596 47.5527H118.101C118.75 47.5535 119.373 47.8113 119.833 48.2696C120.292 48.7278 120.55 49.3492 120.551 49.9973V65.8624C120.55 66.5105 120.292 67.1319 119.833 67.5902C119.373 68.0485 118.75 68.3063 118.101 68.307Z" fill="#E6E6E6"/>
<path d="M116.398 49.5352H95.5644C94.9728 49.5357 94.4056 49.7703 93.9872 50.1875C93.5688 50.6047 93.3334 51.1705 93.3325 51.7606V64.0985C93.3333 64.6888 93.5688 65.2546 93.9871 65.672C94.4055 66.0894 94.9727 66.3243 95.5644 66.3251H108.849C111.442 66.3225 113.928 65.2938 115.761 63.4647C117.595 61.6357 118.626 59.1557 118.628 56.569V51.7606C118.628 51.1706 118.392 50.6049 117.974 50.1877C117.556 49.7704 116.989 49.5358 116.398 49.5352Z" fill="white"/>
<path d="M110.51 53.7059L110.448 53.8179C111.002 52.4553 110.498 50.7763 109.509 49.7489C108.521 48.7214 107.146 48.2517 105.793 48.0654C104.788 47.9271 103.746 47.931 102.79 48.2982C101.407 48.8298 100.35 50.0605 99.4677 51.3407C99.064 51.9263 98.6672 52.5939 98.7074 53.3258C98.7447 54.005 99.1489 54.5814 99.4798 55.1576C99.8108 55.7339 100.087 56.4488 99.8496 57.0778C99.7081 57.4526 99.4089 57.7225 99.1662 58.0291C98.9235 58.3357 98.7238 58.7501 98.8411 59.1348C98.8931 59.282 98.9826 59.4132 99.1006 59.5155C99.2187 59.6179 99.3614 59.688 99.5147 59.7189C99.8117 59.7683 100.115 59.7612 100.41 59.6977L108.124 58.5351C108.648 58.4561 109.145 58.2518 109.573 57.9396C110.001 57.6274 110.347 57.2167 110.581 56.7423C110.816 56.268 110.931 55.7441 110.919 55.2154C110.907 54.6867 110.766 54.1688 110.51 53.7059Z" fill="#2F2E41"/>
<path d="M104.772 58.482C106.855 58.482 108.543 56.7975 108.543 54.7195C108.543 52.6416 106.855 50.957 104.772 50.957C102.689 50.957 101 52.6416 101 54.7195C101 56.7975 102.689 58.482 104.772 58.482Z" fill="#FFB9B9"/>
<path d="M114.614 64.445C112.942 65.6689 110.922 66.3277 108.849 66.3252H97.2758C97.2525 66.3064 97.2303 66.2876 97.207 66.2676L98.2864 63.2631C98.5303 62.7295 98.9152 62.2721 99.3998 61.9401C99.8844 61.6081 100.451 61.414 101.037 61.3785L101.724 61.3365L103.361 59.9277C103.361 59.9277 107.773 59.7706 107.707 59.6953L110.38 61.2988L110.377 61.2878L111.428 61.352C112.015 61.3873 112.581 61.5813 113.066 61.9134C113.55 62.2454 113.935 62.7028 114.179 63.2366L114.614 64.445Z" fill="#FF4400"/>
<path d="M108.35 51.2276C108.252 50.7138 107.727 50.4788 107.277 50.3649C105.972 50.0326 104.614 49.9582 103.28 50.1459C102.307 50.2843 101.312 50.5894 100.606 51.3466C100.037 51.9843 99.7146 52.8034 99.6967 53.6569C99.668 54.1673 99.7823 54.6755 100.027 55.1247C100.136 55.3338 100.298 55.5109 100.497 55.6387C100.696 55.7665 100.924 55.8405 101.16 55.8535L101.206 56.0105C103.099 55.7473 104.858 54.572 105.966 52.8296C105.758 53.5702 105.344 54.237 104.772 54.753C106.051 54.2427 107.162 53.3883 107.982 52.285C108.206 51.9884 108.424 51.6185 108.35 51.2276Z" fill="#2F2E41"/>
<path d="M118.101 38.8666H93.8601C93.2104 38.8658 92.5876 38.6081 92.1282 38.1498C91.6688 37.6915 91.4104 37.0701 91.4097 36.422V20.5569C91.4104 19.9088 91.6688 19.2874 92.1282 18.8291C92.5876 18.3708 93.2104 18.113 93.8601 18.1123H118.101C118.751 18.113 119.374 18.3708 119.833 18.8291C120.293 19.2874 120.551 19.9088 120.552 20.5569V36.422C120.551 37.0701 120.293 37.6915 119.833 38.1498C119.374 38.6081 118.751 38.8658 118.101 38.8666Z" fill="#CCCCCC"/>
<path d="M116.398 20.0938H95.5644C94.9729 20.0945 94.4058 20.3291 93.9874 20.7463C93.569 21.1635 93.3335 21.7291 93.3325 22.3192V34.6571C93.3333 35.2474 93.5688 35.8133 93.9871 36.2306C94.4055 36.648 94.9727 36.8829 95.5644 36.8837H108.849C111.442 36.8816 113.928 35.853 115.762 34.0239C117.595 32.1947 118.626 29.7144 118.628 27.1276V22.3192C118.628 21.7292 118.392 21.1635 117.974 20.7462C117.556 20.329 116.989 20.0944 116.398 20.0938Z" fill="white"/>
<path d="M100.973 22.4881C101.955 22.4881 102.75 21.6946 102.75 20.7157C102.75 19.7369 101.955 18.9434 100.973 18.9434C99.9922 18.9434 99.1968 19.7369 99.1968 20.7157C99.1968 21.6946 99.9922 22.4881 100.973 22.4881Z" fill="#2F2E41"/>
<path d="M103.816 29.2232C106.302 29.2232 108.317 27.2129 108.317 24.7332C108.317 22.2534 106.302 20.2432 103.816 20.2432C101.33 20.2432 99.3154 22.2534 99.3154 24.7332C99.3154 27.2129 101.33 29.2232 103.816 29.2232Z" fill="#2F2E41"/>
<path d="M104.189 29.2211C106.208 29.2211 107.846 27.5876 107.846 25.5725C107.846 23.5574 106.208 21.9238 104.189 21.9238C102.169 21.9238 100.531 23.5574 100.531 25.5725C100.531 27.5876 102.169 29.2211 104.189 29.2211Z" fill="#9E616A"/>
<path d="M106.672 21.853C106.031 21.4633 105.297 21.2524 104.546 21.2426C103.796 21.2327 103.056 21.4241 102.405 21.7969C101.755 22.1697 101.216 22.7101 100.846 23.3616C100.476 24.0132 100.288 24.7519 100.303 25.5006C102.166 25.9673 104.124 26.3246 106.111 25.6122L106.581 24.4663L106.857 25.6131C107.463 25.8598 108.069 26.0687 108.676 25.6107C108.701 24.8641 108.529 24.1242 108.177 23.4647C107.825 22.8053 107.306 22.2496 106.672 21.853Z" fill="#2F2E41"/>
<path d="M99.319 15.9043C98.6952 15.6387 98.0094 15.5525 97.3391 15.6555C96.6689 15.7586 96.0408 16.0466 95.5261 16.4872C95.0228 16.9403 94.6396 17.5106 94.4107 18.1473C94.1818 18.784 94.1144 19.4673 94.2144 20.1363C94.4158 21.497 95.245 22.6687 96.0093 23.8135C96.7736 24.9582 97.5203 26.2126 97.5195 27.588C97.5189 28.5787 97.1245 29.5287 96.4228 30.2297C95.7211 30.9307 94.7694 31.3255 93.7764 31.3274C94.9418 31.828 96.1583 32.3383 97.4258 32.279C98.6933 32.2197 100.022 31.4068 100.229 30.1578C100.378 29.2579 99.935 28.3803 99.5658 27.5459C98.9646 26.1861 98.53 24.759 98.2715 23.2953C98.1483 22.5968 98.068 21.8624 98.2963 21.1907C98.4781 20.6929 98.8154 20.2666 99.2585 19.9746C99.7016 19.6825 100.227 19.5403 100.757 19.5688L101.176 19.193C101.248 18.5202 101.107 17.8419 100.775 17.2524C100.442 16.6629 99.9329 16.1917 99.319 15.9043Z" fill="#2F2E41"/>
<path d="M113.863 35.5007C112.349 36.4082 110.615 36.8865 108.849 36.884H96.312L96.292 36.8674L97.3713 33.8618C97.6153 33.3282 98.0002 32.8711 98.4849 32.5392C98.9695 32.2074 99.5356 32.0135 100.122 31.9783L100.809 31.9362L102.446 30.5275C102.446 30.5275 106.858 30.3692 106.792 30.2939L109.465 31.8975L109.462 31.8875L110.513 31.9517C111.1 31.9866 111.666 32.1803 112.151 32.5122C112.635 32.8441 113.02 33.3015 113.264 33.8352L113.863 35.5007Z" fill="#FF4400"/>
<path d="M118.101 99.3666H93.8596C93.2099 99.3659 92.5871 99.1081 92.1277 98.6498C91.6683 98.1915 91.4099 97.5701 91.4092 96.922V81.0569C91.4099 80.4088 91.6683 79.7874 92.1277 79.3291C92.5871 78.8708 93.2099 78.613 93.8596 78.6123H118.101C118.75 78.613 119.373 78.8708 119.833 79.3291C120.292 79.7874 120.55 80.4088 120.551 81.0569V96.922C120.55 97.5701 120.292 98.1915 119.833 98.6498C119.373 99.1081 118.75 99.3659 118.101 99.3666Z" fill="#E6E6E6"/>
<path d="M116.398 80.5957H95.5644C94.9728 80.5963 94.4056 80.8309 93.9872 81.2481C93.5688 81.6653 93.3334 82.231 93.3325 82.8212V95.1591C93.3333 95.7493 93.5688 96.3152 93.9871 96.7326C94.4055 97.15 94.9727 97.3848 95.5644 97.3856H108.849C111.442 97.3831 113.928 96.3544 115.761 94.5253C117.595 92.6962 118.626 90.2162 118.628 87.6295V82.8212C118.628 82.2311 118.392 81.6654 117.974 81.2482C117.556 80.831 116.989 80.5963 116.398 80.5957Z" fill="white"/>
<path d="M105.962 88.4437C108.734 88.4437 110.98 86.2024 110.98 83.4377C110.98 80.6729 108.734 78.4316 105.962 78.4316C103.191 78.4316 100.944 80.6729 100.944 83.4377C100.944 86.2024 103.191 88.4437 105.962 88.4437Z" fill="#2F2E41"/>
<path d="M105.964 89.1014C108.44 89.1014 110.447 87.0992 110.447 84.6293C110.447 82.1594 108.44 80.1572 105.964 80.1572C103.488 80.1572 101.481 82.1594 101.481 84.6293C101.481 87.0992 103.488 89.1014 105.964 89.1014Z" fill="#FFB8B8"/>
<path d="M114.931 95.264C113.204 96.6394 111.059 97.3876 108.849 97.3854H97.6694L98.7299 94.434C98.9738 93.9004 99.3587 93.443 99.8434 93.111C100.328 92.779 100.894 92.5849 101.481 92.5494L102.168 92.5074L103.805 91.0986C103.805 91.0986 108.216 90.9415 108.151 90.8662L110.823 92.4697L110.821 92.4587L111.871 92.5228C112.458 92.5582 113.024 92.7522 113.509 93.0843C113.994 93.4163 114.379 93.8737 114.622 94.4075L114.931 95.264Z" fill="#FF4400"/>
<path d="M110.694 83.0612C110.725 82.7273 110.74 82.392 110.737 82.0567C110.755 81.3934 110.633 80.7338 110.379 80.1206C110.067 79.4417 109.51 78.9048 108.819 78.6168C108.134 78.3412 107.369 78.3419 106.684 78.6187C106.082 78.2053 105.385 77.9518 104.657 77.8822C104.293 77.8531 103.927 77.9123 103.59 78.0548C103.253 78.1973 102.956 78.4188 102.724 78.7006C102.625 78.8561 102.512 79.0025 102.387 79.1383C102.028 79.4692 101.484 79.4214 101.008 79.3538C101.222 79.5363 101.435 79.7189 101.649 79.9014C101.39 79.9688 101.132 80.0362 100.873 80.1035C101.175 80.286 101.477 80.4685 101.778 80.651C100.903 81.1753 100.505 82.3197 100.61 83.359C100.709 84.343 101.185 85.2427 101.755 86.0425C101.982 85.5644 101.933 84.9924 101.929 84.454C101.927 84.2793 101.938 84.1048 101.961 83.9317C103.885 84.3917 105.895 84.687 107.933 83.9563L108.342 82.9575C108.4 82.9634 108.457 82.9689 108.515 82.975L108.752 83.9573C109.289 84.1764 109.827 84.3679 110.366 84.1666C110.392 84.3183 110.408 84.4732 110.42 84.622C110.466 84.444 110.507 84.2647 110.543 84.0846C110.614 84.0465 110.682 84.0031 110.747 83.9546C110.76 83.6558 110.742 83.3564 110.694 83.0612Z" fill="#2F2E41"/>
<path d="M185.854 4.63944H81.2995C81.1442 4.63927 80.9954 4.57766 80.8856 4.46813C80.7758 4.3586 80.714 4.21009 80.7139 4.05519V0.618437C80.714 0.463535 80.7758 0.315024 80.8856 0.205492C80.9954 0.0959591 81.1442 0.0343493 81.2995 0.0341797H185.854C186.01 0.0343487 186.158 0.095959 186.268 0.205492C186.378 0.315024 186.44 0.463535 186.44 0.618437V4.05519C186.44 4.21009 186.378 4.3586 186.268 4.46813C186.158 4.57766 186.01 4.63927 185.854 4.63944Z" fill="#E4E4E4"/>
<path d="M84.1127 2.99786C84.5719 2.99786 84.9442 2.62648 84.9442 2.16837C84.9442 1.71025 84.5719 1.33887 84.1127 1.33887C83.6535 1.33887 83.2812 1.71025 83.2812 2.16837C83.2812 2.62648 83.6535 2.99786 84.1127 2.99786Z" fill="white"/>
<path d="M87.2685 2.99786C87.7277 2.99786 88.0999 2.62648 88.0999 2.16837C88.0999 1.71025 87.7277 1.33887 87.2685 1.33887C86.8093 1.33887 86.437 1.71025 86.437 2.16837C86.437 2.62648 86.8093 2.99786 87.2685 2.99786Z" fill="white"/>
<path d="M90.4247 2.99786C90.8839 2.99786 91.2562 2.62648 91.2562 2.16837C91.2562 1.71025 90.8839 1.33887 90.4247 1.33887C89.9655 1.33887 89.5933 1.71025 89.5933 2.16837C89.5933 2.62648 89.9655 2.99786 90.4247 2.99786Z" fill="white"/>
<path d="M182.762 1.59768H179.128C179.056 1.59768 178.988 1.56938 178.937 1.51901C178.887 1.46865 178.858 1.40034 178.858 1.32911C178.858 1.25788 178.887 1.18957 178.937 1.13921C178.988 1.08884 179.056 1.06055 179.128 1.06055H182.762C182.833 1.06055 182.902 1.08884 182.952 1.13921C183.003 1.18957 183.031 1.25788 183.031 1.32911C183.031 1.40034 183.003 1.46865 182.952 1.51901C182.902 1.56938 182.833 1.59768 182.762 1.59768Z" fill="white"/>
<path d="M182.762 2.60549H179.128C179.093 2.60549 179.058 2.59854 179.025 2.58504C178.992 2.57155 178.963 2.55176 178.938 2.52683C178.913 2.50189 178.893 2.47228 178.879 2.4397C178.866 2.40711 178.859 2.37219 178.859 2.33692C178.859 2.30165 178.866 2.26673 178.879 2.23415C178.893 2.20156 178.913 2.17196 178.938 2.14702C178.963 2.12208 178.992 2.1023 179.025 2.0888C179.058 2.07531 179.093 2.06836 179.128 2.06836H182.762C182.798 2.06836 182.833 2.07531 182.865 2.0888C182.898 2.1023 182.928 2.12208 182.953 2.14702C182.978 2.17196 182.997 2.20156 183.011 2.23415C183.025 2.26673 183.032 2.30165 183.032 2.33692C183.032 2.37219 183.025 2.40711 183.011 2.4397C182.997 2.47228 182.978 2.50189 182.953 2.52683C182.928 2.55176 182.898 2.57155 182.865 2.58504C182.833 2.59854 182.798 2.60549 182.762 2.60549Z" fill="white"/>
<path d="M182.762 3.61232H179.128C179.057 3.61232 178.988 3.58403 178.938 3.53367C178.887 3.4833 178.859 3.41499 178.859 3.34376C178.859 3.27253 178.887 3.20422 178.938 3.15386C178.988 3.10349 179.057 3.0752 179.128 3.0752H182.762C182.834 3.0752 182.902 3.10349 182.953 3.15386C183.003 3.20422 183.032 3.27253 183.032 3.34376C183.032 3.41499 183.003 3.4833 182.953 3.53367C182.902 3.58403 182.834 3.61232 182.762 3.61232Z" fill="white"/>
<path d="M164.511 35.3323C165.341 35.3323 166.014 34.6606 166.014 33.8322C166.014 33.0037 165.341 32.332 164.511 32.332C163.68 32.332 163.007 33.0037 163.007 33.8322C163.007 34.6606 163.68 35.3323 164.511 35.3323Z" fill="#FF4400"/>
<path d="M169.393 35.3323C170.224 35.3323 170.897 34.6606 170.897 33.8322C170.897 33.0037 170.224 32.332 169.393 32.332C168.563 32.332 167.89 33.0037 167.89 33.8322C167.89 34.6606 168.563 35.3323 169.393 35.3323Z" fill="#FF4400"/>
<path d="M174.277 35.3323C175.107 35.3323 175.78 34.6606 175.78 33.8322C175.78 33.0037 175.107 32.332 174.277 32.332C173.446 32.332 172.773 33.0037 172.773 33.8322C172.773 34.6606 173.446 35.3323 174.277 35.3323Z" fill="#FF4400"/>
<path d="M164.511 64.5618C165.341 64.5618 166.014 63.8901 166.014 63.0616C166.014 62.2332 165.341 61.5615 164.511 61.5615C163.68 61.5615 163.007 62.2332 163.007 63.0616C163.007 63.8901 163.68 64.5618 164.511 64.5618Z" fill="#E6E6E6"/>
<path d="M169.393 64.5618C170.224 64.5618 170.897 63.8901 170.897 63.0616C170.897 62.2332 170.224 61.5615 169.393 61.5615C168.563 61.5615 167.89 62.2332 167.89 63.0616C167.89 63.8901 168.563 64.5618 169.393 64.5618Z" fill="#E6E6E6"/>
<path d="M174.277 64.5618C175.107 64.5618 175.78 63.8901 175.78 63.0616C175.78 62.2332 175.107 61.5615 174.277 61.5615C173.446 61.5615 172.773 62.2332 172.773 63.0616C172.773 63.8901 173.446 64.5618 174.277 64.5618Z" fill="#E6E6E6"/>
<path d="M164.511 95.676C165.341 95.676 166.014 95.0044 166.014 94.1759C166.014 93.3474 165.341 92.6758 164.511 92.6758C163.68 92.6758 163.007 93.3474 163.007 94.1759C163.007 95.0044 163.68 95.676 164.511 95.676Z" fill="#E6E6E6"/>
<path d="M169.393 95.676C170.224 95.676 170.897 95.0044 170.897 94.1759C170.897 93.3474 170.224 92.6758 169.393 92.6758C168.563 92.6758 167.89 93.3474 167.89 94.1759C167.89 95.0044 168.563 95.676 169.393 95.676Z" fill="#E6E6E6"/>
<path d="M174.277 95.676C175.107 95.676 175.78 95.0044 175.78 94.1759C175.78 93.3474 175.107 92.6758 174.277 92.6758C173.446 92.6758 172.773 93.3474 172.773 94.1759C172.773 95.0044 173.446 95.676 174.277 95.676Z" fill="#E6E6E6"/>
<path d="M121.71 35.1257L113.96 30.2299C113.812 30.1364 113.641 30.0845 113.466 30.0795C113.291 30.0745 113.118 30.1168 112.965 30.2017C112.812 30.2867 112.684 30.4112 112.596 30.5623C112.508 30.7133 112.462 30.8853 112.464 31.06L112.54 39.5016C112.542 39.726 112.622 39.9427 112.766 40.1151C112.91 40.2875 113.109 40.4049 113.33 40.4474C113.551 40.4899 113.78 40.4548 113.978 40.3482C114.175 40.2416 114.33 40.07 114.416 39.8625L115.424 37.4153L118.236 42.9455C118.37 43.2072 118.602 43.4053 118.882 43.4963C119.161 43.5874 119.466 43.5639 119.729 43.431C119.991 43.2982 120.19 43.0669 120.282 42.7878C120.373 42.5088 120.35 42.2048 120.218 41.9427L117.342 36.2868L121.027 36.9057C121.249 36.943 121.477 36.9025 121.673 36.7911C121.868 36.6797 122.019 36.5043 122.099 36.2946C122.18 36.0849 122.185 35.854 122.114 35.6409C122.043 35.4278 121.901 35.2458 121.71 35.1257Z" fill="#3F3D56"/>
<path d="M23.5733 87.6856C23.7616 87.4812 23.9027 87.2382 23.9866 86.9735C24.0706 86.7088 24.0953 86.429 24.0591 86.1537C24.0229 85.8785 23.9267 85.6145 23.7772 85.3804C23.6276 85.1462 23.4285 84.9476 23.1937 84.7986L24.7536 78.2324L21.4521 79.4358L20.4769 85.4866C20.2521 85.8967 20.1859 86.3748 20.2908 86.8303C20.3957 87.2858 20.6644 87.6871 21.0461 87.9582C21.4277 88.2292 21.8958 88.3512 22.3616 88.301C22.8274 88.2507 23.2585 88.0318 23.5733 87.6856Z" fill="#FFB8B8"/>
<path d="M31.5129 60.1703L30.1879 63.5694C30.1879 63.5694 30.7557 66.9685 29.8093 67.7238C28.8629 68.4792 29.2414 68.4792 29.2414 69.0457C29.2088 69.4521 29.0909 69.847 28.8952 70.2049C28.6995 70.5628 28.4305 70.8756 28.1057 71.1229C27.3486 71.6894 23.9414 83.2085 23.9414 83.2085H20.5343C20.6443 82.3307 20.6443 81.4426 20.5343 80.5648C20.345 79.2429 21.1021 75.8439 21.4807 75.2773C21.8593 74.7108 21.4807 73.9555 21.4807 72.8225C21.4807 71.6894 22.2378 71.1229 22.2378 69.2345C22.2378 67.3462 24.5093 52.6168 24.32 50.9173C24.1307 49.2177 26.2129 47.707 26.2129 47.707H28.1057L31.5129 60.1703Z" fill="#E6E6E6"/>
<path d="M24.5984 129.043H27.0508L28.218 119.605H24.5981L24.5984 129.043Z" fill="#FFB6B6"/>
<path d="M23.7978 127.368L27.716 127.135V128.81L31.4412 131.376C31.6252 131.503 31.7638 131.685 31.8367 131.896C31.9097 132.107 31.9131 132.335 31.8466 132.548C31.78 132.761 31.647 132.948 31.4669 133.08C31.2867 133.212 31.069 133.283 30.8454 133.283H26.1805L25.3765 131.627L25.0625 133.283H23.3037L23.7978 127.368Z" fill="#2F2E41"/>
<path d="M38.3747 129.043H40.8272L41.9944 119.605H38.3745L38.3747 129.043Z" fill="#FFB6B6"/>
<path d="M37.5741 127.368L41.4924 127.135V128.81L45.2176 131.376C45.4016 131.503 45.5402 131.685 45.6131 131.896C45.686 132.107 45.6895 132.335 45.6229 132.548C45.5564 132.761 45.4233 132.948 45.2432 133.08C45.0631 133.212 44.8454 133.283 44.6218 133.283H39.9569L39.1529 131.627L38.8389 133.283H37.0801L37.5741 127.368Z" fill="#2F2E41"/>
<path d="M23.5403 120.905H23.5669L24.9274 105.56C24.6222 104.973 24.4672 104.319 24.4764 103.658C24.4857 102.996 24.6587 102.347 24.9802 101.768L25.0477 101.646L24.8726 100.837C24.6477 99.7963 24.7509 98.712 25.168 97.7326L24.7193 83.4185C23.1472 73.2546 30.6391 66.626 30.6391 66.626H41.862L44.2715 74.8846C45.1761 83.6775 48.0052 92.9259 47.6304 101.45C47.3453 107.935 44.1397 113.754 43.0477 120.069L43.1166 120.104C43.3647 120.189 43.4711 120.532 43.3543 120.87C43.2375 121.207 42.9417 121.412 42.6936 121.326L36.7666 121.121C36.5185 121.035 36.412 120.692 36.5288 120.355C36.6456 120.017 36.9415 119.813 37.1896 119.898L37.5926 120.102L40.5105 104.629L40.6059 101.925L40.4094 98.8563L35.7235 85.7198L32.2847 102.692L28.7721 121.076C28.869 121.163 28.937 121.278 28.9671 121.405C28.9973 121.532 28.9881 121.665 28.941 121.786C28.8938 121.908 28.8107 122.012 28.7028 122.086C28.5949 122.159 28.4671 122.199 28.3364 122.198H23.5403C23.4551 122.198 23.3708 122.182 23.2922 122.149C23.2136 122.117 23.1421 122.069 23.0819 122.009C23.0217 121.949 22.974 121.878 22.9414 121.799C22.9089 121.721 22.8921 121.637 22.8921 121.552C22.8921 121.467 22.9089 121.383 22.9414 121.304C22.974 121.226 23.0217 121.154 23.0819 121.094C23.1421 121.034 23.2136 120.987 23.2922 120.954C23.3708 120.922 23.4551 120.905 23.5403 120.905Z" fill="#2F2E41"/>
<path d="M22.6104 73.5304C22.242 73.5304 22.0327 73.4583 21.9516 73.3037C21.8327 73.0768 22.0391 72.7805 22.278 72.4372C22.4553 72.213 22.5951 71.9618 22.692 71.6931C22.8349 71.1229 23.7993 56.7198 23.2225 53.8419C23.089 53.176 23.2039 52.3225 23.5638 51.305C24.5469 48.5263 25.8888 47.6723 28.562 45.9712C28.779 45.8331 29.0049 45.6888 29.2399 45.5385C29.5438 45.3436 29.5268 44.6977 29.5089 44.0136C29.4891 43.2533 29.4685 42.4671 29.8418 41.9757L29.8661 41.9436L29.9053 41.9345C30.8083 41.7263 33.8454 41.3397 35.6441 41.9374L35.6689 41.9458L35.6875 41.9642C36.1147 42.3904 36.1537 43.2161 36.1913 44.0145C36.2221 44.6699 36.2513 45.2889 36.4931 45.5577C38.3411 47.6128 40.437 47.5727 40.4583 47.5723L40.5621 47.5692L40.5724 47.6723C41.3763 55.8294 42.6721 68.1411 42.9475 68.6256C42.9619 68.6478 42.9699 68.6735 42.9708 68.6999C42.9716 68.7263 42.9651 68.7524 42.9521 68.7754C42.5478 69.529 23.9992 73.5304 22.6104 73.5304Z" fill="#E6E6E6"/>
<path d="M34.6808 39.6257C37.7079 39.6257 40.1619 37.1775 40.1619 34.1576C40.1619 31.1376 37.7079 28.6895 34.6808 28.6895C31.6537 28.6895 29.1997 31.1376 29.1997 34.1576C29.1997 37.1775 31.6537 39.6257 34.6808 39.6257Z" fill="#FFB8B8"/>
<path d="M19.624 31.7149C20.5507 30.6368 20.9913 29.2064 21.7321 27.9821C22.473 26.7578 23.7622 25.662 25.1242 25.9469C26.063 26.1433 26.7886 26.9699 27.156 27.8913C27.5232 28.8128 27.5921 29.829 27.6564 30.8245C27.6337 28.7787 28.9848 26.7954 30.8458 26.1426C32.7068 25.4898 34.934 26.2179 36.1035 27.8615C36.6138 27.3896 37.2799 27.1209 37.9756 27.1064C38.6713 27.0918 39.3481 27.3324 39.8778 27.7825C40.9238 28.7151 41.1553 30.4903 40.3861 31.68C39.9998 32.2588 39.415 32.6771 38.7415 32.8562C38.068 33.0354 37.3522 32.9631 36.7283 32.653L36.2961 33.0496C36.4081 33.4736 36.3671 33.9233 36.1804 34.3202C35.9936 34.7171 35.673 35.0358 35.2745 35.2208C34.6314 35.4799 33.7235 35.4368 33.4829 36.11C33.3147 36.5805 33.6291 37.0826 33.9634 37.4441C34.2977 37.8056 34.6947 38.1789 34.7348 38.6792C34.7955 39.4339 34.0137 39.9627 33.3029 40.1219C32.4316 40.2957 31.5281 40.2062 30.7081 39.8647C29.8881 39.5233 29.1889 38.9455 28.6999 38.2054C28.6809 38.1763 28.6602 38.1471 28.6378 38.118C28.0836 37.411 27.6798 36.5986 27.4509 35.7307C27.222 34.8627 27.173 33.9573 27.3067 33.0697C27.3622 32.721 27.3063 32.4616 27.0652 32.379C26.0236 32.0221 23.1051 32.7713 22.2219 33.4484C21.3385 34.1255 20.6312 35.0216 19.7805 35.7424C18.9296 36.4632 17.8455 37.0193 16.7652 36.823C15.9 36.6657 15.164 36.0391 14.6689 35.2833C14.2021 34.5011 13.8533 33.6545 13.6338 32.7708C15.5469 33.8734 18.1653 33.4119 19.624 31.7149Z" fill="#2F2E41"/>
<path d="M43.4679 87.6856C43.2796 87.4812 43.1386 87.2381 43.0546 86.9735C42.9707 86.7088 42.9459 86.429 42.9821 86.1537C43.0183 85.8785 43.1146 85.6145 43.2641 85.3804C43.4136 85.1462 43.6128 84.9476 43.8475 84.7986L42.2876 78.2324L45.5891 79.4358L46.5643 85.4866C46.7891 85.8967 46.8554 86.3748 46.7505 86.8303C46.6456 87.2858 46.3768 87.6871 45.9952 87.9582C45.6135 88.2292 45.1454 88.3512 44.6797 88.301C44.2139 88.2507 43.7827 88.0318 43.4679 87.6856Z" fill="#FFB8B8"/>
<path d="M35.5283 60.1703L36.8533 63.5694C36.8533 63.5694 36.2855 66.9685 37.2319 67.7238C38.1783 68.4792 37.7998 68.4792 37.7998 69.0457C37.8324 69.4521 37.9503 69.847 38.146 70.2049C38.3417 70.5628 38.6107 70.8756 38.9355 71.1229C39.6926 71.6894 43.0998 83.2085 43.0998 83.2085H46.5069C46.3969 82.3307 46.3969 81.4426 46.5069 80.5648C46.6962 79.2429 45.9391 75.8439 45.5605 75.2773C45.1819 74.7108 45.5605 73.9555 45.5605 72.8225C45.5605 71.6894 44.8034 71.1229 44.8034 69.2345C44.8034 67.3462 42.5319 52.6168 42.7212 50.9173C42.9105 49.2177 40.8283 47.707 40.8283 47.707H38.9355L35.5283 60.1703Z" fill="#E6E6E6"/>
</g>
<defs>
<clipPath id="clip0_718_964">
<rect width="186.148" height="133.424" fill="white" transform="translate(0.291992 0.0341797)"/>
</clipPath>
</defs>
</svg>
