<svg width="386" height="237" viewBox="0 0 386 237" fill="none" xmlns="http://www.w3.org/2000/svg">
<path d="M232.911 209.831L218.988 213.572L233.012 204.934C232.71 191.164 227.911 176.886 227.911 176.886C227.911 176.886 197.94 185.582 190.074 200.642C182.208 215.701 188.4 225.643 199.426 231.421C210.452 237.198 222.137 236.624 230.003 221.564C231.754 218.212 232.62 214.139 232.911 209.831Z" fill="#F2F2F2"/>
<path d="M216.326 212.774L215.939 213.517C211.388 222.122 206.418 228.093 201.091 231.34C201.015 231.388 200.936 231.431 200.859 231.48L200.642 231.118L200.437 230.767C206.273 227.306 211.172 220.656 215.143 213.152C215.274 212.911 215.406 212.667 215.531 212.419C217.184 209.227 218.673 205.902 219.996 202.608C220.101 202.354 220.204 202.094 220.307 201.834C222.032 197.477 223.469 193.204 224.622 189.441C224.704 189.175 224.783 188.907 224.86 188.644C226.785 182.266 227.853 177.476 228.081 176.411C228.112 176.282 228.126 176.21 228.13 176.193L228.53 176.277L228.536 176.275L228.94 176.36C228.936 176.377 228.889 176.619 228.788 177.062C228.421 178.723 227.377 183.208 225.657 188.944C225.578 189.202 225.499 189.47 225.416 189.735C224.484 192.79 223.371 196.166 222.07 199.641C221.744 200.514 221.414 201.371 221.078 202.21C220.979 202.472 220.876 202.732 220.771 202.986C219.341 206.547 217.859 209.81 216.326 212.774Z" fill="white"/>
<path d="M225.657 188.944C225.393 188.848 225.127 188.751 224.86 188.644C224.136 188.354 223.426 188.028 222.735 187.666C219.788 186.127 217.223 183.944 215.229 181.28C214.973 181.394 214.717 181.508 214.456 181.624C216.538 184.456 219.238 186.774 222.351 188.401C223.089 188.787 223.847 189.135 224.621 189.441C224.884 189.546 225.151 189.643 225.416 189.736C227.598 190.507 229.883 190.943 232.195 191.027C232.143 190.742 232.093 190.463 232.044 190.189C229.865 190.092 227.713 189.672 225.657 188.944Z" fill="white"/>
<path d="M221.078 202.211C220.817 202.093 220.56 201.967 220.307 201.835C220.228 201.798 220.147 201.756 220.07 201.715C216.878 200.043 214.138 197.622 212.082 194.66C210.026 191.698 208.716 188.282 208.264 184.703C208.004 184.843 207.744 184.982 207.485 185.128C207.999 188.778 209.374 192.254 211.495 195.266C213.617 198.278 216.425 200.741 219.686 202.45C219.789 202.504 219.891 202.558 219.996 202.608C220.255 202.739 220.512 202.864 220.771 202.986C224.793 204.838 229.263 205.49 233.645 204.864C233.641 204.586 233.637 204.308 233.629 204.027C229.358 204.658 224.996 204.027 221.078 202.211Z" fill="white"/>
<path d="M216.326 212.775C216.058 212.662 215.793 212.542 215.531 212.419C215.25 212.286 214.971 212.149 214.696 212.005C210.41 209.753 206.967 206.171 204.884 201.795C202.801 197.419 202.188 192.486 203.139 187.732C202.818 187.944 202.5 188.151 202.187 188.366C201.393 193.19 202.138 198.141 204.315 202.516C206.491 206.892 209.989 210.469 214.312 212.74C214.587 212.884 214.864 213.024 215.143 213.152C215.407 213.281 215.672 213.401 215.938 213.517C221.338 215.829 227.413 215.999 232.934 213.993C232.999 213.681 233.051 213.366 233.105 213.048C227.689 215.146 221.671 215.048 216.326 212.775Z" fill="white"/>
<path d="M50.0685 211.137L63.9919 214.878L49.9678 206.241C50.2694 192.47 55.0681 178.192 55.0681 178.192C55.0681 178.192 85.0395 186.888 92.9056 201.948C100.772 217.007 94.5798 226.949 83.5537 232.727C72.5278 238.504 60.8429 237.93 52.9769 222.87C51.226 219.519 50.3597 215.445 50.0685 211.137Z" fill="#F2F2F2"/>
<path d="M66.6536 214.081L67.0414 214.823C71.5923 223.428 76.5616 229.399 81.8885 232.646C81.9653 232.694 82.0439 232.737 82.1207 232.786L82.3382 232.424L82.5429 232.073C76.7065 228.612 71.808 221.962 67.8366 214.458C67.7063 214.217 67.574 213.973 67.4491 213.725C65.7959 210.533 64.307 207.208 62.9835 203.914C62.8788 203.66 62.7759 203.4 62.673 203.141C60.9484 198.783 59.5106 194.51 58.3582 190.747C58.2755 190.481 58.1965 190.214 58.1195 189.95C56.1949 183.572 55.1273 178.782 54.8985 177.717C54.8683 177.588 54.8541 177.516 54.8501 177.5L54.4497 177.583L54.4441 177.581L54.04 177.666C54.0441 177.683 54.0911 177.925 54.1918 178.369C54.5594 180.03 55.6028 184.514 57.323 190.25C57.4018 190.508 57.4808 190.776 57.5635 191.041C58.4955 194.096 59.6094 197.472 60.9103 200.947C61.2356 201.82 61.5662 202.677 61.902 203.516C62.0012 203.778 62.1042 204.038 62.2088 204.292C63.6391 207.853 65.1207 211.116 66.6536 214.081Z" fill="white"/>
<path d="M50.9355 191.496C50.8868 191.769 50.8364 192.048 50.7842 192.333C53.0961 192.249 55.3818 191.813 57.5632 191.042C57.8282 190.95 58.095 190.852 58.3579 190.747C59.1324 190.441 59.8901 190.094 60.628 189.707C63.7409 188.08 66.4414 185.762 68.5233 182.93C68.2619 182.814 68.0061 182.7 67.7502 182.586C65.7566 185.251 63.1916 187.433 60.2441 188.972C59.5529 189.334 58.8437 189.661 58.1192 189.95C57.8526 190.057 57.5858 190.155 57.3227 190.25C55.2665 190.978 53.1142 191.398 50.9355 191.496Z" fill="white"/>
<path d="M49.3501 205.334C49.3423 205.614 49.3382 205.892 49.334 206.17C53.7166 206.796 58.1863 206.144 62.2086 204.292C62.4675 204.17 62.7245 204.045 62.9832 203.914C63.0879 203.864 63.1906 203.81 63.2933 203.756C66.5546 202.047 69.3623 199.585 71.484 196.572C73.6057 193.56 74.9803 190.085 75.494 186.434C75.2357 186.289 74.9757 186.149 74.7157 186.009C74.263 189.588 72.9529 193.004 70.8972 195.966C68.8414 198.929 66.101 201.349 62.9095 203.021C62.8324 203.062 62.7517 203.104 62.6727 203.141C62.4195 203.273 62.1626 203.399 61.9017 203.517C57.9835 205.333 53.6214 205.964 49.3501 205.334Z" fill="white"/>
<path d="M49.875 214.354C49.929 214.672 49.9811 214.987 50.046 215.299C55.5663 217.305 61.6415 217.135 67.0413 214.823C67.3077 214.707 67.5722 214.587 67.8366 214.458C68.1157 214.331 68.3928 214.19 68.668 214.046C72.9903 211.775 76.4882 208.198 78.6648 203.822C80.8415 199.447 81.5861 194.496 80.7931 189.672C80.4798 189.457 80.1612 189.25 79.8406 189.039C80.7911 193.792 80.1789 198.726 78.0956 203.101C76.0123 207.477 72.57 211.059 68.2841 213.311C68.009 213.455 67.7299 213.592 67.449 213.725C67.1864 213.849 66.9219 213.969 66.6536 214.081C61.309 216.354 55.2906 216.452 49.875 214.354Z" fill="white"/>
<path d="M115.346 221.682L123.635 223.909L115.286 218.767C115.466 210.569 118.322 202.069 118.322 202.069C118.322 202.069 136.165 207.246 140.848 216.211C145.531 225.177 141.845 231.095 135.281 234.535C128.717 237.974 121.76 237.632 117.077 228.667C116.035 226.672 115.519 224.246 115.346 221.682Z" fill="#F2F2F2"/>
<path d="M125.22 223.434L125.45 223.876C128.16 228.999 131.118 232.554 134.289 234.487C134.335 234.516 134.382 234.541 134.428 234.57L134.557 234.355L134.679 234.146C131.204 232.085 128.288 228.127 125.924 223.659C125.846 223.516 125.768 223.37 125.693 223.223C124.709 221.322 123.823 219.343 123.035 217.382C122.972 217.231 122.911 217.076 122.85 216.922C121.823 214.328 120.967 211.783 120.281 209.543C120.232 209.385 120.185 209.226 120.139 209.069C118.993 205.272 118.358 202.42 118.222 201.787C118.204 201.71 118.195 201.667 118.193 201.657L117.954 201.706L117.951 201.705L117.71 201.756C117.713 201.766 117.741 201.91 117.801 202.174C118.02 203.163 118.641 205.833 119.665 209.247C119.712 209.401 119.759 209.56 119.808 209.719C120.363 211.537 121.026 213.547 121.8 215.616C121.994 216.136 122.191 216.645 122.391 217.145C122.45 217.301 122.511 217.456 122.574 217.607C123.425 219.727 124.307 221.67 125.22 223.434Z" fill="white"/>
<path d="M115.863 209.989C115.834 210.152 115.804 210.318 115.772 210.488C117.149 210.437 118.51 210.178 119.808 209.719C119.966 209.664 120.125 209.606 120.281 209.543C120.742 209.361 121.193 209.154 121.633 208.924C123.486 207.956 125.094 206.576 126.333 204.89C126.177 204.821 126.025 204.753 125.873 204.685C124.686 206.271 123.159 207.57 121.404 208.487C120.993 208.702 120.571 208.897 120.139 209.069C119.98 209.132 119.822 209.191 119.665 209.248C118.441 209.681 117.16 209.931 115.863 209.989Z" fill="white"/>
<path d="M114.919 218.227C114.914 218.394 114.912 218.56 114.909 218.725C117.518 219.098 120.179 218.71 122.574 217.607C122.728 217.535 122.881 217.46 123.035 217.382C123.097 217.352 123.158 217.32 123.22 217.288C125.161 216.271 126.833 214.805 128.096 213.011C129.359 211.218 130.177 209.149 130.483 206.976C130.329 206.889 130.174 206.806 130.02 206.723C129.75 208.853 128.97 210.887 127.746 212.651C126.522 214.414 124.891 215.855 122.991 216.851C122.945 216.875 122.897 216.9 122.85 216.922C122.699 217.001 122.546 217.075 122.391 217.146C120.058 218.227 117.462 218.603 114.919 218.227Z" fill="white"/>
<path d="M115.231 223.597C115.263 223.786 115.294 223.974 115.333 224.159C118.619 225.354 122.236 225.252 125.451 223.876C125.609 223.807 125.767 223.736 125.924 223.659C126.09 223.583 126.255 223.499 126.419 223.413C128.992 222.062 131.074 219.932 132.37 217.327C133.666 214.722 134.109 211.775 133.637 208.903C133.451 208.775 133.261 208.652 133.07 208.526C133.636 211.356 133.272 214.293 132.031 216.898C130.791 219.503 128.742 221.635 126.19 222.976C126.027 223.062 125.86 223.143 125.693 223.222C125.537 223.296 125.379 223.367 125.22 223.434C122.038 224.787 118.455 224.846 115.231 223.597Z" fill="white"/>
<path d="M280.909 146.311L280.874 146.308C274.281 145.218 266.957 145.218 258.484 146.309H258.48C258.269 146.312 258.059 146.272 257.863 146.193C257.667 146.114 257.488 145.997 257.338 145.849C257.187 145.7 257.067 145.523 256.985 145.328C256.903 145.133 256.86 144.924 256.859 144.712V137.026C256.86 136.602 257.028 136.195 257.328 135.896C257.627 135.596 258.033 135.427 258.456 135.427C265.918 134.452 273.474 134.453 280.936 135.428H280.939C281.357 135.435 281.757 135.606 282.05 135.905C282.343 136.204 282.507 136.607 282.506 137.026V144.712C282.505 145.136 282.337 145.542 282.038 145.842C281.738 146.142 281.332 146.311 280.909 146.311Z" fill="white"/>
<path d="M280.909 146.311L280.874 146.308C274.281 145.218 266.957 145.218 258.484 146.309H258.48C258.269 146.312 258.059 146.272 257.863 146.193C257.667 146.114 257.488 145.997 257.338 145.849C257.187 145.7 257.067 145.523 256.985 145.328C256.903 145.133 256.86 144.924 256.859 144.712V137.026C256.86 136.602 257.028 136.195 257.328 135.896C257.627 135.596 258.033 135.427 258.456 135.427C265.918 134.452 273.474 134.453 280.936 135.428H280.939C281.357 135.435 281.757 135.606 282.05 135.905C282.343 136.204 282.507 136.607 282.506 137.026V144.712C282.505 145.136 282.337 145.542 282.038 145.842C281.738 146.142 281.332 146.311 280.909 146.311ZM269.398 135.133C265.748 135.126 262.102 135.369 258.486 135.86C258.331 135.857 258.177 135.886 258.033 135.943C257.889 136.001 257.758 136.086 257.647 136.194C257.537 136.303 257.448 136.432 257.388 136.575C257.327 136.718 257.295 136.871 257.294 137.026V144.712C257.294 145.02 257.417 145.316 257.635 145.534C257.853 145.753 258.148 145.875 258.456 145.876C266.937 144.782 274.296 144.782 280.926 145.876C281.231 145.871 281.522 145.746 281.736 145.528C281.951 145.311 282.071 145.017 282.071 144.712V137.026C282.071 136.717 281.948 136.422 281.73 136.203C281.512 135.985 281.217 135.862 280.909 135.862C277.09 135.382 273.246 135.139 269.398 135.133Z" fill="#FF4400"/>
<path d="M269.682 143.549C271.363 143.549 272.725 142.185 272.725 140.502C272.725 138.819 271.363 137.454 269.682 137.454C268.002 137.454 266.64 138.819 266.64 140.502C266.64 142.185 268.002 143.549 269.682 143.549Z" fill="#FF4400"/>
<path d="M261.858 138.91H259.25C259.077 138.91 258.912 138.841 258.789 138.718C258.667 138.596 258.598 138.43 258.598 138.257V137.386C258.598 137.213 258.667 137.047 258.789 136.924C258.912 136.802 259.077 136.733 259.25 136.733H261.858C262.031 136.733 262.197 136.802 262.319 136.924C262.441 137.047 262.51 137.213 262.51 137.386V138.257C262.51 138.43 262.441 138.596 262.319 138.718C262.197 138.841 262.031 138.91 261.858 138.91Z" fill="#FF4400"/>
<path d="M280.115 145.005H277.507C277.334 145.005 277.168 144.936 277.046 144.814C276.924 144.691 276.855 144.525 276.855 144.352V143.481C276.855 143.308 276.924 143.142 277.046 143.02C277.168 142.897 277.334 142.828 277.507 142.828H280.115C280.288 142.828 280.454 142.897 280.576 143.02C280.698 143.142 280.767 143.308 280.767 143.481V144.352C280.767 144.525 280.698 144.691 280.576 144.814C280.454 144.936 280.288 145.005 280.115 145.005Z" fill="#FF4400"/>
<path d="M277.198 143.132L277.167 143.116C271.516 139.543 264.769 136.691 256.539 134.396L256.536 134.395C256.34 134.315 256.162 134.197 256.012 134.047C255.862 133.898 255.743 133.721 255.662 133.525C255.581 133.33 255.539 133.12 255.539 132.908C255.539 132.697 255.581 132.487 255.662 132.291L258.647 125.211C258.812 124.82 259.125 124.511 259.517 124.352C259.909 124.192 260.348 124.195 260.739 124.359C267.991 126.368 274.953 129.312 281.448 133.117L281.451 133.118C281.834 133.287 282.135 133.6 282.29 133.99C282.444 134.379 282.438 134.814 282.274 135.2L279.29 142.281C279.125 142.671 278.812 142.98 278.42 143.14C278.028 143.3 277.588 143.297 277.198 143.132Z" fill="white"/>
<path d="M277.198 143.132L277.167 143.116C271.516 139.543 264.769 136.691 256.539 134.396L256.536 134.395C256.34 134.315 256.162 134.197 256.012 134.047C255.862 133.898 255.743 133.721 255.662 133.525C255.581 133.33 255.539 133.12 255.539 132.908C255.539 132.697 255.581 132.487 255.662 132.291L258.647 125.211C258.812 124.82 259.125 124.511 259.517 124.352C259.909 124.192 260.348 124.195 260.739 124.359C267.991 126.368 274.953 129.312 281.448 133.117L281.451 133.118C281.834 133.287 282.135 133.6 282.29 133.99C282.444 134.379 282.438 134.814 282.274 135.2L279.29 142.281C279.125 142.671 278.812 142.98 278.42 143.14C278.028 143.3 277.588 143.297 277.198 143.132ZM270.933 128.35C267.573 126.923 264.12 125.726 260.598 124.77C260.456 124.707 260.303 124.673 260.148 124.67C259.994 124.667 259.84 124.695 259.696 124.751C259.551 124.808 259.42 124.893 259.309 125.001C259.197 125.109 259.108 125.237 259.047 125.38L256.063 132.461C255.943 132.745 255.941 133.065 256.057 133.351C256.173 133.637 256.398 133.865 256.682 133.986C264.919 136.281 271.699 139.147 277.383 142.738C277.666 142.852 277.982 142.851 278.264 142.733C278.546 142.616 278.771 142.393 278.89 142.112L281.874 135.031C281.993 134.746 281.995 134.426 281.879 134.14C281.763 133.854 281.539 133.626 281.255 133.506C277.923 131.577 274.476 129.855 270.933 128.35Z" fill="#FF4400"/>
<path d="M269.111 136.455C270.791 136.455 272.153 135.091 272.153 133.407C272.153 131.724 270.791 130.36 269.111 130.36C267.43 130.36 266.068 131.724 266.068 133.407C266.068 135.091 267.43 136.455 269.111 136.455Z" fill="#FF4400"/>
<path d="M262.521 128.893L260.118 127.877C259.959 127.81 259.833 127.682 259.768 127.521C259.703 127.361 259.704 127.181 259.771 127.021L260.109 126.219C260.176 126.06 260.304 125.934 260.464 125.868C260.624 125.803 260.804 125.804 260.963 125.871L263.366 126.887C263.525 126.955 263.651 127.083 263.716 127.243C263.781 127.404 263.78 127.583 263.713 127.743L263.375 128.545C263.308 128.705 263.18 128.831 263.02 128.896C262.86 128.961 262.68 128.96 262.521 128.893Z" fill="#FF4400"/>
<path d="M276.974 141.619L274.571 140.604C274.412 140.536 274.286 140.408 274.221 140.248C274.156 140.087 274.157 139.908 274.224 139.748L274.562 138.946C274.629 138.786 274.757 138.66 274.917 138.595C275.078 138.53 275.257 138.531 275.416 138.598L277.819 139.614C277.978 139.681 278.104 139.809 278.169 139.97C278.234 140.13 278.233 140.31 278.166 140.47L277.828 141.272C277.761 141.431 277.633 141.557 277.473 141.623C277.313 141.688 277.133 141.687 276.974 141.619Z" fill="#FF4400"/>
<path d="M283.186 138.925C283.733 138.595 284.202 138.148 284.559 137.617C284.915 137.086 285.151 136.483 285.25 135.851C285.349 135.219 285.308 134.572 285.131 133.957C284.953 133.342 284.643 132.774 284.223 132.292L291.921 118.779L283.865 119.3L277.79 132.053C277.029 132.814 276.573 133.829 276.508 134.904C276.444 135.98 276.776 137.042 277.441 137.889C278.106 138.736 279.058 139.309 280.117 139.5C281.176 139.691 282.268 139.486 283.186 138.925Z" fill="#FFB6B6"/>
<path d="M342.443 231.047H337.114L334.579 210.459L342.444 210.459L342.443 231.047Z" fill="#FFB6B6"/>
<path d="M343.802 236.221L326.619 236.221V236.003C326.619 234.226 327.323 232.523 328.578 231.266C329.832 230.01 331.533 229.304 333.307 229.304H333.307L343.802 229.305L343.802 236.221Z" fill="#666885"/>
<path d="M305.929 231.047H300.6L298.065 210.459L305.93 210.459L305.929 231.047Z" fill="#FFB6B6"/>
<path d="M307.288 236.221L290.105 236.221V236.003C290.105 234.226 290.81 232.523 292.064 231.266C293.318 230.01 295.019 229.304 296.793 229.304H296.794L307.289 229.305L307.288 236.221Z" fill="#666885"/>
<path d="M292.226 119.359C292.226 119.359 290.76 140.267 293.647 150.796C296.534 161.326 297.049 225.002 297.049 225.002H306.726L315.113 138.325L334.449 225.308L343.666 224.673L338.611 122.176L292.226 119.359Z" fill="#666885"/>
<path d="M334.613 48.882L327.215 43.4751L314.819 46.1786L311.463 54.1643L305.681 57.0356C303.78 57.9797 302.136 59.3721 300.891 61.093C299.646 62.8139 298.836 64.8119 298.532 66.9153L290.272 124.048L338.611 122.176L344.464 54.8917C344.525 54.1888 344.444 53.4808 344.228 52.8096C344.011 52.1384 343.661 51.5175 343.201 50.9839C342.74 50.4502 342.177 50.0145 341.545 49.7025C340.914 49.3906 340.226 49.2088 339.522 49.1679L334.613 48.882Z" fill="#E4E4E4"/>
<path d="M302.623 61.498L298.158 67.5263L278.712 126.931L287.827 130.587L302.423 102.905L302.623 61.498Z" fill="#E4E4E4"/>
<path d="M318.607 39.9817C326.778 39.9817 333.402 33.347 333.402 25.1627C333.402 16.9784 326.778 10.3438 318.607 10.3438C310.436 10.3438 303.812 16.9784 303.812 25.1627C303.812 33.347 310.436 39.9817 318.607 39.9817Z" fill="#666885"/>
<path d="M318.806 40.6521C324.769 40.6521 329.603 35.8106 329.603 29.8383C329.603 23.8659 324.769 19.0244 318.806 19.0244C312.844 19.0244 308.01 23.8659 308.01 29.8383C308.01 35.8106 312.844 40.6521 318.806 40.6521Z" fill="#FFB9B9"/>
<path d="M327.004 28.4365C320.129 25.9529 317.803 24.4271 310.209 28.4365L307.41 17.2222H329.803L327.004 28.4365Z" fill="#666885"/>
<path d="M317.407 18.824C322.045 18.824 325.805 15.0584 325.805 10.4132C325.805 5.76807 322.045 2.00244 317.407 2.00244C312.769 2.00244 309.01 5.76807 309.01 10.4132C309.01 15.0584 312.769 18.824 317.407 18.824Z" fill="#666885"/>
<path d="M307.41 8.41078C307.411 6.25078 308.242 4.17411 309.732 2.61176C311.221 1.04941 313.253 0.121357 315.408 0.0202156C315.274 0.0139026 315.143 0 315.008 0C312.781 0 310.645 0.886133 309.07 2.46346C307.495 4.04078 306.61 6.18009 306.61 8.41077C306.61 10.6414 307.495 12.7808 309.07 14.3581C310.645 15.9354 312.781 16.8215 315.008 16.8215C315.143 16.8215 315.274 16.8076 315.408 16.8013C313.253 16.7002 311.221 15.7721 309.732 14.2098C308.243 12.6474 307.411 10.5708 307.41 8.41078Z" fill="#666885"/>
<path opacity="0.1" d="M338.223 64.9194L335.21 94.9974L324.572 115.998L338.223 64.9194Z" fill="black"/>
<path d="M19.778 157.492H17.1699V159.669H19.778V157.492Z" fill="#F0F0F0"/>
<path d="M266.474 159.669H261.335V157.492H266.474V159.669ZM256.195 159.669H251.056V157.492H256.195V159.669ZM245.916 159.669H240.777V157.492H245.916V159.669ZM235.637 159.669H230.498V157.492H235.637V159.669ZM225.358 159.669H220.219V157.492H225.358V159.669ZM215.079 159.669H209.94V157.492H215.079L215.079 159.669ZM204.8 159.669H199.661V157.492H204.8V159.669ZM194.521 159.669H189.382V157.492H194.521V159.669ZM184.242 159.669H179.103V157.492H184.242V159.669ZM173.963 159.669H168.824V157.492H173.963L173.963 159.669ZM163.684 159.669H158.545V157.492H163.684L163.684 159.669ZM153.405 159.669H148.266V157.492H153.405L153.405 159.669ZM143.126 159.669H137.987V157.492H143.126L143.126 159.669ZM132.847 159.669H127.708V157.492H132.847L132.847 159.669ZM122.568 159.669H117.429V157.492H122.568L122.568 159.669ZM112.289 159.669H107.15V157.492H112.289L112.289 159.669ZM102.01 159.669H96.8705V157.492H102.01L102.01 159.669ZM91.7311 159.669H86.5916V157.492H91.7312L91.7311 159.669ZM81.4519 159.669H76.3126V157.492H81.452L81.4519 159.669ZM71.1729 159.669H66.0336V157.492H71.173L71.1729 159.669ZM60.8939 159.669H55.7546V157.492H60.894L60.8939 159.669ZM50.6149 159.669H45.4755V157.492H50.6151L50.6149 159.669ZM40.3359 159.669H35.1965V157.492H40.3361L40.3359 159.669ZM30.0569 159.669H24.9175V157.492H30.0571L30.0569 159.669Z" fill="#F0F0F0"/>
<path d="M19.778 102.199H17.1699V104.376H19.778V102.199Z" fill="#F0F0F0"/>
<path d="M266.474 104.376H261.335V102.199H266.474V104.376ZM256.195 104.376H251.056V102.199H256.195V104.376ZM245.916 104.376H240.777V102.199H245.916V104.376ZM235.637 104.376H230.498V102.199H235.637V104.376ZM225.358 104.376H220.219V102.199H225.358V104.376ZM215.079 104.376H209.94V102.199H215.079L215.079 104.376ZM204.8 104.376H199.661V102.199H204.8V104.376ZM194.521 104.376H189.382V102.199H194.521V104.376ZM184.242 104.376H179.103V102.199H184.242V104.376ZM173.963 104.376H168.824V102.199H173.963L173.963 104.376ZM163.684 104.376H158.545V102.199H163.684L163.684 104.376ZM153.405 104.376H148.266V102.199H153.405L153.405 104.376ZM143.126 104.376H137.987V102.199H143.126L143.126 104.376ZM132.847 104.376H127.708V102.199H132.847L132.847 104.376ZM122.568 104.376H117.429V102.199H122.568L122.568 104.376ZM112.289 104.376H107.15V102.199H112.289L112.289 104.376ZM102.01 104.376H96.8705V102.199H102.01L102.01 104.376ZM91.7311 104.376H86.5916V102.199H91.7312L91.7311 104.376ZM81.4519 104.376H76.3126V102.199H81.452L81.4519 104.376ZM71.1729 104.376H66.0336V102.199H71.173L71.1729 104.376ZM60.8939 104.376H55.7546V102.199H60.894L60.8939 104.376ZM50.6149 104.376H45.4755V102.199H50.6151L50.6149 104.376ZM40.3359 104.376H35.1965V102.199H40.3361L40.3359 104.376ZM30.0569 104.376H24.9175V102.199H30.0571L30.0569 104.376Z" fill="#F0F0F0"/>
<path d="M19.778 46.9058H17.1699V49.0826H19.778V46.9058Z" fill="#F0F0F0"/>
<path d="M266.474 49.0826H261.335V46.9058H266.474V49.0826ZM256.195 49.0826H251.056V46.9058H256.195V49.0826ZM245.916 49.0826H240.777V46.9058H245.916V49.0826ZM235.637 49.0826H230.498V46.9058H235.637V49.0826ZM225.358 49.0826H220.219V46.9058H225.358V49.0826ZM215.079 49.0826H209.94V46.9058H215.079L215.079 49.0826ZM204.8 49.0826H199.661V46.9058H204.8V49.0826ZM194.521 49.0826H189.382V46.9058H194.521V49.0826ZM184.242 49.0826H179.103V46.9058H184.242V49.0826ZM173.963 49.0826H168.824V46.9058H173.963L173.963 49.0826ZM163.684 49.0826H158.545V46.9058H163.684L163.684 49.0826ZM153.405 49.0826H148.266V46.9058H153.405L153.405 49.0826ZM143.126 49.0826H137.987V46.9058H143.126L143.126 49.0826ZM132.847 49.0826H127.708V46.9058H132.847L132.847 49.0826ZM122.568 49.0826H117.429V46.9058H122.568L122.568 49.0826ZM112.289 49.0826H107.15V46.9058H112.289L112.289 49.0826ZM102.01 49.0826H96.8705V46.9058H102.01L102.01 49.0826ZM91.7311 49.0826H86.5916V46.9058H91.7312L91.7311 49.0826ZM81.4519 49.0826H76.3126V46.9058H81.452L81.4519 49.0826ZM71.1729 49.0826H66.0336V46.9058H71.173L71.1729 49.0826ZM60.8939 49.0826H55.7546V46.9058H60.894L60.8939 49.0826ZM50.6149 49.0826H45.4755V46.9058H50.6151L50.6149 49.0826ZM40.3359 49.0826H35.1965V46.9058H40.3361L40.3359 49.0826ZM30.0569 49.0826H24.9175V46.9058H30.0571L30.0569 49.0826Z" fill="#F0F0F0"/>
<path d="M102.151 158.145H80.8516V236.512H102.151V158.145Z" fill="#3F3D56"/>
<path d="M106.063 158.145H84.7637V236.512H106.063V158.145Z" fill="#FF4400"/>
<path d="M152.574 102.852H131.274V236.512H152.574V102.852Z" fill="#3F3D56"/>
<path d="M156.487 102.852H135.187V236.512H156.487V102.852Z" fill="#FF4400"/>
<path d="M202.998 47.5591H181.698V236.512H202.998V47.5591Z" fill="#3F3D56"/>
<path d="M206.91 47.5591H185.61V236.512H206.91V47.5591Z" fill="#FF4400"/>
<path d="M17.3876 53.219C20.2684 53.219 22.6038 50.8799 22.6038 47.9945C22.6038 45.1091 20.2684 42.77 17.3876 42.77C14.5068 42.77 12.1714 45.1091 12.1714 47.9945C12.1714 50.8799 14.5068 53.219 17.3876 53.219Z" fill="#F0F0F0"/>
<path d="M17.3876 108.512C20.2684 108.512 22.6038 106.172 22.6038 103.287C22.6038 100.402 20.2684 98.0625 17.3876 98.0625C14.5068 98.0625 12.1714 100.402 12.1714 103.287C12.1714 106.172 14.5068 108.512 17.3876 108.512Z" fill="#F0F0F0"/>
<path d="M17.3876 163.804C20.2684 163.804 22.6038 161.465 22.6038 158.58C22.6038 155.695 20.2684 153.355 17.3876 153.355C14.5068 153.355 12.1714 155.695 12.1714 158.58C12.1714 161.465 14.5068 163.804 17.3876 163.804Z" fill="#F0F0F0"/>
<path d="M386 236H65V237H386V236Z" fill="#3F3D56"/>
<path d="M325.681 136.733L325.646 136.73C319.053 135.64 311.73 135.64 303.256 136.731H303.253C303.041 136.734 302.832 136.694 302.636 136.615C302.44 136.536 302.261 136.419 302.11 136.271C301.96 136.122 301.84 135.945 301.758 135.75C301.676 135.555 301.633 135.345 301.632 135.134V127.448C301.632 127.024 301.801 126.617 302.1 126.318C302.399 126.018 302.805 125.849 303.229 125.849C310.69 124.874 318.247 124.875 325.708 125.85H325.711C326.13 125.856 326.529 126.028 326.822 126.327C327.116 126.626 327.279 127.029 327.278 127.448V135.134C327.278 135.558 327.109 135.964 326.81 136.264C326.511 136.564 326.105 136.732 325.681 136.733Z" fill="white"/>
<path d="M325.681 136.733L325.646 136.73C319.053 135.64 311.73 135.64 303.256 136.731H303.253C303.041 136.734 302.832 136.694 302.636 136.615C302.44 136.536 302.261 136.419 302.11 136.271C301.96 136.122 301.84 135.945 301.758 135.75C301.676 135.555 301.633 135.345 301.632 135.134V127.448C301.632 127.024 301.801 126.617 302.1 126.318C302.399 126.018 302.805 125.849 303.229 125.849C310.69 124.874 318.247 124.875 325.708 125.85H325.711C326.13 125.856 326.529 126.028 326.822 126.327C327.116 126.626 327.279 127.029 327.278 127.448V135.134C327.278 135.558 327.109 135.964 326.81 136.264C326.511 136.564 326.105 136.732 325.681 136.733ZM314.17 125.555C310.52 125.548 306.875 125.791 303.258 126.282C303.103 126.279 302.95 126.308 302.806 126.365C302.662 126.422 302.531 126.508 302.42 126.616C302.309 126.725 302.221 126.854 302.16 126.997C302.1 127.139 302.068 127.293 302.067 127.448V135.134C302.067 135.442 302.189 135.738 302.407 135.956C302.625 136.175 302.92 136.297 303.229 136.298C311.709 135.204 319.068 135.203 325.699 136.297C326.004 136.293 326.295 136.168 326.509 135.95C326.723 135.733 326.843 135.439 326.844 135.134V127.448C326.843 127.139 326.721 126.843 326.503 126.625C326.285 126.407 325.99 126.284 325.681 126.284C321.863 125.804 318.018 125.561 314.17 125.555Z" fill="#FF4400"/>
<path d="M314.455 133.971C316.135 133.971 317.498 132.607 317.498 130.924C317.498 129.24 316.135 127.876 314.455 127.876C312.774 127.876 311.412 129.24 311.412 130.924C311.412 132.607 312.774 133.971 314.455 133.971Z" fill="#FF4400"/>
<path d="M306.631 129.331H304.023C303.85 129.331 303.684 129.262 303.562 129.14C303.44 129.017 303.371 128.851 303.371 128.678V127.807C303.371 127.634 303.44 127.468 303.562 127.346C303.684 127.223 303.85 127.154 304.023 127.154H306.631C306.804 127.154 306.969 127.223 307.092 127.346C307.214 127.468 307.283 127.634 307.283 127.807V128.678C307.283 128.851 307.214 129.017 307.092 129.14C306.969 129.262 306.804 129.331 306.631 129.331Z" fill="#FF4400"/>
<path d="M324.888 135.427H322.279C322.107 135.427 321.941 135.358 321.819 135.235C321.696 135.113 321.628 134.947 321.627 134.774V133.903C321.628 133.73 321.696 133.564 321.819 133.441C321.941 133.319 322.107 133.25 322.279 133.25H324.888C325.06 133.25 325.226 133.319 325.348 133.441C325.471 133.564 325.539 133.73 325.54 133.903V134.774C325.539 134.947 325.471 135.113 325.348 135.235C325.226 135.358 325.06 135.427 324.888 135.427Z" fill="#FF4400"/>
<path d="M320.794 126.658C320.75 126.02 320.845 125.379 321.074 124.782C321.304 124.184 321.661 123.644 322.121 123.2C322.581 122.756 323.133 122.418 323.737 122.21C324.342 122.003 324.984 121.931 325.62 121.999L332.243 107.926L336.444 114.83L329.51 127.135C329.325 128.197 328.758 129.153 327.915 129.824C327.073 130.495 326.015 130.833 324.941 130.774C323.866 130.715 322.851 130.264 322.087 129.505C321.323 128.746 320.863 127.734 320.794 126.658Z" fill="#FFB6B6"/>
<path d="M338.803 53.0456L341.53 49.4826C341.53 49.4826 348.177 48.1267 349.306 57.2702L348.595 97.9193L334.03 120.88L324.571 118.461L336.938 91.1853L338.803 53.0456Z" fill="#E4E4E4"/>
</svg>
