<svg width="62" height="43" viewBox="0 0 62 43" fill="none" xmlns="http://www.w3.org/2000/svg">
<g clip-path="url(#clip0_1090_1095)">
<path d="M60.6307 6.70681C60.2751 5.41049 59.5814 4.22868 58.6187 3.27906C57.656 2.32943 56.4579 1.64514 55.1437 1.2943C50.3324 0 30.9686 0 30.9686 0C30.9686 0 11.6037 0.0391777 6.79244 1.33348C5.47821 1.68433 4.28009 2.36867 3.31739 3.31834C2.3547 4.268 1.66102 5.44986 1.30544 6.74622C-0.149868 15.1785 -0.714407 28.0274 1.3454 36.1224C1.70102 37.4187 2.39471 38.6005 3.35741 39.5501C4.3201 40.4998 5.5182 41.1841 6.8324 41.5349C11.6437 42.8292 31.008 42.8292 31.008 42.8292C31.008 42.8292 50.3721 42.8292 55.1832 41.5349C56.4974 41.1841 57.6956 40.4998 58.6583 39.5502C59.6211 38.6006 60.3148 37.4187 60.6704 36.1224C62.2054 27.6781 62.6784 14.8372 60.6307 6.70681Z" fill="#FF0000"/>
<path d="M24.8052 30.5921L40.869 21.4144L24.8052 12.2368V30.5921Z" fill="white"/>
</g>
<defs>
<clipPath id="clip0_1090_1095">
<rect width="62" height="43" fill="white"/>
</clipPath>
</defs>
</svg>
